<svg id="Layer_1" data-name="Layer 1" xmlns="http://www.w3.org/2000/svg" viewBox="0 0 1000 1000"><title>advanced icon red</title><path d="M717,432c-2.31,67-25.18,122.44-74.9,165.08-19.32,16.57-29,35.45-27.34,61.38,2.43,37.69-5.66,72.68-35,99.27-34,30.8-73.63,38.55-116.13,22-41-15.95-63.85-47.43-69.4-91.35-1.4-11.11-.83-22.16-.34-33.2,1-23-7.71-40.65-25.27-55.71-52.24-44.78-78.1-102.21-77.21-171,1.47-113.6,93.4-207.15,206.72-211.18,107.27-3.81,205.89,82.2,216.66,189C715.67,415.62,716.35,424.9,717,432Z" style="fill:#fbb05d"/><path d="M33,496.55c0-21.52-.1-43,0-64.54.08-12.78,7.3-21,18-20.94s17.48,7.89,17.5,21.18q.11,60.09,0,120.18c0,13.91,0,13.88,14.27,13.84,9.28,0,18.55-.06,27.82.09,18.57.3,32.48,9.15,38.18,26.76a571.61,571.61,0,0,0,33.85,82c8.17,16.18,5,31.8-7.48,45.07-7.63,8.1-15.45,16-23.62,23.59-5.21,4.8-5.69,8.23-.32,13.52q43.54,43,86.46,86.64c5.68,5.8,9.27,5.18,14.31-.37,7-7.67,14.45-14.92,22-22.06,14.8-14,30.71-16.82,49-7.39,24.08,12.44,48.75,23.22,74.72,31.1,12.59,3.83,17.82,13.32,14.21,23.46-3.75,10.52-12.35,13.92-25.44,10.18a356.68,356.68,0,0,1-74.81-30.79c-6.56-3.63-11.16-3.51-16.35,2.38-6.84,7.79-14.37,15-22,22.09-17.08,16-39.28,17-56,.75Q168.78,826,121.71,777.07c-15-15.6-14.32-37,.25-53.27,7.41-8.28,15.34-16.14,23.52-23.68,5.14-4.74,6.22-8.77,2.67-15.29-13-23.78-23.58-48.63-30.78-74.81-1.6-5.84-4.46-8.5-10.94-8.2-10.73.51-21.51.31-32.26,0C50,601.21,33.18,584,33.05,560,32.94,538.84,33,517.69,33,496.55Z" style="fill:#e64a4a"/><path d="M932.25,497.45c0-20-.66-40.08.26-60.06.5-10.9-3.6-13.53-13.43-12.86s-20,.29-30,.09c-17.93-.35-30.94-9.27-36.52-25.8a661.51,661.51,0,0,0-34.78-84c-7.75-15.54-4.57-31.17,7.91-44,7.74-8,15.48-16,23.6-23.59,5.08-4.75,5.75-8.21.33-13.55q-44-43.35-87.3-87.35c-5-5.06-8.24-4.32-12.67.4-7.61,8.12-15.48,16-23.62,23.58-14,13-30.24,15.71-47.16,7-24.76-12.71-50-24-76.8-31.81-11-3.21-16.08-12.68-13.29-22.18,3.06-10.43,12.1-15.08,23.74-11.8a368,368,0,0,1,76.93,31.4c6.58,3.59,11.13,3.57,16.3-2.39,6.54-7.55,13.89-14.42,21.16-21.31,17.64-16.71,39.49-18.06,56.72-1.38,32.77,31.71,64.82,64.19,96.51,97,14.12,14.61,13.12,36.73-1.07,52.5-7.67,8.54-15.89,16.63-24.29,24.46-4.54,4.23-5.45,7.94-2.39,13.51A362.36,362.36,0,0,1,884,382.12c1.4,5,4.24,7.06,9.62,6.91,11.12-.31,22.26-.17,33.38.08,23.48.51,40.8,17.63,40.91,40.93.2,43,.11,86,0,129.06,0,12.72-7.42,20.94-18.15,20.83s-17.36-8.23-17.4-21.28c-.05-20.4,0-40.8,0-61.2Z" style="fill:#e64a4a"/><path d="M499.54,28c21.51,0,43-.09,64.52,0,13.13.07,21,6.89,21,17.8s-7.94,17.72-21,17.74c-40.8.08-81.59.3-122.38-.17-9.45-.11-12.46,3.06-11.92,12.14.59,10,.26,20,.06,30-.39,19.14-9.66,32.77-27.72,38.62a515.55,515.55,0,0,0-79.89,33.09c-16.38,8.55-32.67,5.68-46.12-6.87-7.86-7.34-15.53-14.9-22.82-22.8-5.27-5.71-9-6.77-15.22-.45q-42.39,43.35-85.76,85.74c-5.81,5.71-5.11,9.34.38,14.35C160,254,167,261.21,173.9,268.47c14.9,15.69,17.54,31.89,7.51,50.82A424.13,424.13,0,0,0,150.75,393c-3.69,11.95-12.54,17.3-22.46,14.35-10.83-3.22-14.93-12.26-11.39-24.81a356.48,356.48,0,0,1,31.19-75.8c3.63-6.56,3.43-11.15-2.49-16.31a302.92,302.92,0,0,1-22.08-22c-16.25-17.44-16.53-39.79.14-56.78q46.36-47.23,93.68-93.55c17-16.62,39.37-16.07,56.72.37,7.53,7.14,15,14.37,22,22.06,4.71,5.19,8.83,6.36,15.3,2.76a334.29,334.29,0,0,1,74.72-30.86c6.67-1.82,8.56-5.54,8.26-12.06-.45-10-.29-20-.05-30,.62-25.69,17.45-42.22,43-42.31C458,28,478.77,28,499.54,28Z" style="fill:#f78636"/><path d="M500.48,962.94c-21.14,0-42.28.09-63.42,0C424,962.83,416,956,415.94,945.22s7.83-17.83,20.9-17.86c40.8-.11,81.6-.28,122.4.17,9.29.11,12.6-2.77,12-12-.65-10.35-.38-20.77-.13-31.15.45-18.35,9.62-31.39,26.65-37.14,28.13-9.5,55.54-20.33,82-33.94,16.13-8.3,31.82-5.19,45.15,7.14,8.71,8.05,17,16.53,25.21,25.13,4.07,4.28,7.07,3.94,11,0q44.34-44.58,89-88.88c4-4,4.33-7,.06-11-7.56-7.11-14.77-14.6-22.06-22-15.87-16.09-18.74-32.76-8.18-52.57a430.73,430.73,0,0,0,29.93-71.62c4.37-13.63,13-19.22,23.52-15.62,10.74,3.66,14.09,12.68,10.16,26.41A330.47,330.47,0,0,1,854,681.92c-5.06,9-3.91,14.53,3.49,20.83a230.82,230.82,0,0,1,19.73,19.59c16.78,18.16,16.84,40-.48,57.58q-45.68,46.38-92.1,92c-17.94,17.64-39.89,17.38-58.38,0-7.83-7.37-15.45-15-22.77-22.86-4-4.32-7.64-4.54-12.67-1.83-24.5,13.2-49.91,24.28-76.82,31.66-5.59,1.53-7.49,4.74-7.29,10.49.38,10.74.33,21.51,0,32.26-.83,25.1-17.62,41.23-42.76,41.31C542.77,963,521.63,962.94,500.48,962.94Z" style="fill:#f78636"/><path d="M468.86,623.43c-10.52.46-22.4,1.44-32-3.87-9.81-5.43-11.38-16.5-16.83-25.3-6.66-10.74-16.27-20.28-25.56-28.74-53.08-48.26-72.17-108.08-53.94-177,18-67.91,63.38-111,132.57-125.36,93.19-19.37,186.67,49.65,198.71,145.13q12.18,96.48-61.62,160.1c-14.75,12.7-26.52,27.51-32.61,46.08-2.43,7.41-6.29,9.3-13.57,8.83a233.37,233.37,0,0,0-29.21.15C527.15,624,469.81,623.39,468.86,623.43Z" style="fill:#fdfdfd"/><path d="M504.31,666.22c19.51,0,39,.31,58.51-.15,7.93-.19,9.63,3.07,9.58,10.23-.26,37.18-30.36,68.18-67.08,68.62-38.41.47-68.15-28.78-69.08-67.38-.2-8.31,1.7-11.94,10.9-11.63,19,.64,38.11.19,57.17.19Z" style="fill:#fdfdfd"/></svg>