<svg id="Layer_1" data-name="Layer 1" xmlns="http://www.w3.org/2000/svg" xmlns:xlink="http://www.w3.org/1999/xlink" viewBox="0 0 1000 1000"><defs><linearGradient id="linear-gradient" x1="394.08" y1="477.67" x2="1133.95" y2="477.67" gradientTransform="matrix(0.78, -0.62, 0.62, 0.78, -217.12, 431.51)" gradientUnits="userSpaceOnUse"><stop offset="0" stop-color="#ffa368"/><stop offset="1" stop-color="#ff315a"/></linearGradient></defs><title>paper airplane icon TEST</title><path d="M947.79,82.13c-18.78-8.7-35.09-8.28-55.49-5.24-21.53,3.21-43.46,5.47-64.94,9.11-39.84,6.74-80.56,12-120.83,17.3q-136.8,18-273,39.15c-47.1,7.25-94.71,13.6-142,19.37-19.2,2.35-38.38,5.46-57.46,8.12-20.95,2.93-46,2.9-63.76,15.91-30.3,22.27-30.17,67.41-4.53,93.11,15.3,15.34,35.75,27,53.15,39.83,19.66,14.55,39.41,29,59,43.63,33.22,24.72,66.7,49.16,100,73.83,15.91,11.79,31.83,23.56,47.65,35.46,14,10.55,32.71,19.59,41.05,35.38,16.55,31.35,28.92,65.66,43.29,98.11C527.08,644,543.07,683.3,560.46,722,576.87,758.57,591,796.51,609,832.33c17.26,34.41,62.71,50.27,94.48,23.82,15.1-12.56,19-31.14,25.89-48.63,7-17.82,14-36,21-54,17.43-44.31,34-89,50.82-133.5q52.56-138.71,106.17-277c17.41-45,33.73-90.37,51.55-135.17,8.71-21.91,23.71-48.48,22.37-72.68C980.1,114.05,967.5,91.28,947.79,82.13ZM619.52,757.06c-15.26-38.94-36.4-76.93-50.3-115.77C562,621,551.58,601.66,542.75,581.47c-7-15.9-15.56-35.74-22.43-51.8-4-9.43-9.08-18.16-11.65-27.64-1.42-5.27-2.76-5.83-.15-10.84,2.79-5.35,14.1-11.27,18.92-15.11,21-16.77,41.79-34.34,63.19-50.34,24.63-18.42,48.24-38.44,72.29-57.63,11.63-9.28,14.9-11.17,5.11-23.69-5-6.43-11.32-20-20.67-18.3-9.13,1.69-21.22,16.65-28.57,22.5Q599.1,364.29,579.41,380q-36.75,29.28-73.5,58.59c-5.72,4.57-22.34,22.59-30,21.54-1.18-.17-7.84-7.05-9.42-8.22-5.51-4.06-11-8.2-16.56-12.16-15.25-10.82-30.65-21.82-45.76-33.88-32.08-25.61-66.09-48.81-98.45-72.57-26.46-19.43-53.79-38.48-79.5-58.53-14-10.93-43-23.09-39.22-44.45,3.57-20.09,34.53-18,49.61-20.22,42.7-6.13,85.21-12.17,129-18.22,88.4-12.22,176.83-24.77,266.88-37.66,47.79-6.83,92.59-13.44,140-20.58,21.76-3.28,45-6.76,66.62-8.71,9.09-.82,19.18-4.44,27.22-5.49,11.07-1.44,25.43-1.53,37.62-3.55,20.41-3.38,42.31,5,35.91,29.32-5.71,21.65-16,42.87-24.32,64-8.6,22-17.33,45.39-25.83,67.63-9.55,25-19.83,48.78-28.35,74.2C832.19,438,795,525.1,762.61,609.64c-17.62,46-34.11,91.25-51.86,136.91-8.52,21.92-16.76,45.2-26,66.67s-30.21,19.82-40.6-.1C634.84,795.28,626.71,775.39,619.52,757.06Z" style="fill:url(#linear-gradient)"/><path d="M323.65,348.46c-5.22-3.3-9.3-8.14-14.87-11-4.89-3.69-9.35-8-14.78-10.92q-9.22-7-18.48-14a16.72,16.72,0,0,0-2-1.12c-8.74-6.85-17.46-13.72-26.78-19.78a178.08,178.08,0,0,0-18-13.37,211.51,211.51,0,0,0-19.92-14.64c-5.76-5.07-12.51-8.92-17.89-14.46-5.14-7.26-6.88-15.11-3.73-23.62A16.68,16.68,0,0,1,201,214.21c7.37-1.18,14.73-2.43,22.1-3.65,9.13-.87,18.2-2.11,27.21-3.85q21.29-2.31,42.38-6Q316,198.13,339,194.16q23-2.55,45.86-6.47c16.76-1.89,33.45-4.28,50.08-7.06,18.44-2.17,36.83-4.74,55.14-7.82,19-2.18,38-4.9,56.85-8q29.76-3.51,59.34-8.39,28.52-3.3,56.83-8,25-2.83,49.87-7,24.39-3.3,48.78-6.61c3.37-.47,6.7-1.12,10.05-1.68q28.89-3.41,57.59-8.12c12.28-1.35,24.52-3,36.66-5.22Q890.12,117,914,113c12.21-1,20.57,4.74,26.41,15,4.88,10.71-.32,20.08-3.91,29.68-.65,1.73-1.11,3.54-1.66,5.32-5.83,13-10.24,26.46-15.51,39.63-1.38,3.45-2.58,7-3.86,10.46L896.7,262.21l-18.48,48.17-19.07,50.36c-6.09,14.48-11.54,29.21-16.88,44l-16.53,43q-8.4,22-16.78,44.09c-6.34,16-12.77,32-18.29,48.35-5.85,15-11.74,30-17.54,45-2.76,7.13-5.37,14.32-8,21.48l-20,52.28L728.7,702c-6.2,15.3-12.14,30.68-17.6,46.25q-10.62,25.89-20,52.27c-1.7,4.19-3.47,8.34-5.06,12.56-6.07,16.1-12.42,19.6-29,15.92-8-3.81-12.46-10.68-15.82-18.48-3.48-9.63-7.89-18.86-12.08-28.19q-4.93-11.13-9.89-22.26c-3.19-8.6-7-17-10.9-25.23L596.62,708q-5.88-13.46-11.75-26.9-6.43-14.83-12.86-29.65L561.84,628.1q-4.53-10.29-9.05-20.59L541,580.61l-10.16-23.33c-3.39-8.46-6.84-16.89-11-25-2.64-7.43-6-14.55-9.34-21.66-1.82-4.35-3.36-8.84-5.54-13-1.75-3.31-1.12-5.11,1.76-7.38q35.94-28.38,71.67-57.06c1.47-1.17,2.85-2.46,4.28-3.7,5.57-4.34,11.18-8.64,16.71-13,23.86-19,47.65-38.07,71.6-56.95,3.24-2.55,3.61-4.19.87-7.41-6.31-7.41-12.2-15.19-18.31-22.78-.85-1.05-1.38-2.54-3-2.74-2.21-.17-3.28,1.66-4.69,2.78Q564.1,394.46,482.39,459.66c-2,1.62-3.85,3.38-6.49,1.2-9.46-7.55-19.15-14.79-29.2-21.54-6.94-4.9-13.09-10.88-20.51-15.13a146.17,146.17,0,0,0-17.43-12.87,203.9,203.9,0,0,0-20.51-15.15c-7.86-5.8-15.2-12.31-23.58-17.42a209.3,209.3,0,0,0-20.51-15.14A211,211,0,0,0,323.65,348.46Z" style="fill:#fefefe"/><rect x="13.46" y="478.64" width="155.04" height="36.73" rx="7" transform="translate(-287.08 161.8) rotate(-38.06)" style="fill:#ffa167"/><rect x="147.22" y="521.24" width="155.04" height="36.73" rx="7" transform="translate(-284.89 253.32) rotate(-38.06)" style="fill:#ffa167"/><rect x="250.87" y="590.02" width="155.04" height="36.73" rx="7" transform="translate(-305.25 331.86) rotate(-38.06)" style="fill:#ffa167"/><rect x="293.4" y="705.55" width="155.04" height="36.73" rx="7" transform="translate(-367.44 382.65) rotate(-38.06)" style="fill:#ffa167"/><rect x="307.39" y="845.09" width="155.04" height="36.73" rx="7" transform="translate(-450.49 420.95) rotate(-38.06)" style="fill:#ffa167"/></svg>