<svg id="Layer_1" data-name="Layer 1" xmlns="http://www.w3.org/2000/svg" viewBox="0 0 1000 1000"><title>anon icon</title><path d="M715.68,533.8c7.89-.94,15.41-3.72,23.4-4.43A102.08,102.08,0,0,1,777,533.14c2.57.74,4.46,1.59,6.15-1.66,9.26-17.77,25.94-24,44.06-27.76C845,500,863,499.58,881,498.87l85.79,56.6c1.11,40.16-19.39,79.53-63.62,88.83-46.85,9.86-100.89-11.9-119.5-58.22a73.94,73.94,0,0,1-5.39-23.28c-.2-3.57-1.62-4.53-5.06-4.5-16.25.16-32.5.13-48.75,0-3.18,0-5,.41-5.26,4.25-2.82,44.07-43.61,81.2-96.05,83.86-26.16,1.32-50.6-4-68.83-24.11-23.9-26.37-28.78-57.91-20.17-91.59,3.93-15.4,16-23.36,30.86-27.12,17-4.3,34.37-4.74,51.78-4.33,1.09,2.32,2.65,4,5.43,4.12q33.82,18.66,67.68,37.27c2.48,1.36,4.83,3.73,8.15,2C703.92,539.71,709.81,536.76,715.68,533.8Z" style="fill:#4d4d4d"/><path d="M966.79,555.47,881,498.87a150.48,150.48,0,0,1,55.5,5.63C958.27,511.06,968.63,529.54,966.79,555.47Z" style="fill:#fbb05d"/><path d="M715.68,533.8c-5.87,3-11.76,5.91-17.62,8.9-3.32,1.7-5.67-.67-8.15-2-22.58-12.38-46.37-24.59-68.92-37-2.75-1.37-5.8-4.21-4.12-4.12,7.56.4,22.83.32,30.35,1.92,10.62.59,21,2.52,31.4,4.77C695.28,509.84,708.45,517.71,715.68,533.8Z" style="fill:#fbb05d"/><rect x="157.51" y="491.76" width="638.68" height="16.48" rx="6" transform="translate(-179.29 716.49) rotate(-64.62)" style="fill:#fbb05d"/><path d="M97.08,377.68h12.16c2,.26,4,.49,6,.78a96.64,96.64,0,0,1,47.22,20.62c10.83,8.65,20.27,18.54,25.89,31.52v3.65a47.64,47.64,0,0,1-2.67,5.69c-13.73,21.64-32.83,36.32-57.42,43.57-6.16,1.81-12.65,2.47-19,3.66H97.08c-2-.26-4-.5-6-.78A97.16,97.16,0,0,1,41.27,463.7C31.58,455.47,23,446.25,18,434.25V430.6a42.16,42.16,0,0,1,2.48-5.46c13.77-21.72,33-36.49,57.62-43.79C84.25,379.53,90.74,378.87,97.08,377.68Zm79.06,54.93c-8.63-14.1-27.15-31.11-35.72-33,10.08,19.52,5,40.49-9.95,53.16a42.16,42.16,0,0,1-51,2.75c-7.88-5.45-13.71-12.59-16.68-21.8-3.81-11.82-2.59-23.27,3.29-34.37a3.23,3.23,0,0,0-.83.11c-14.27,7.43-25.37,18.31-34.14,31.65a3.53,3.53,0,0,0,.36,3.09A96.44,96.44,0,0,0,50.68,455.6C69.8,471.25,91.54,478,116.07,474,142.42,469.62,161.29,454.06,176.14,432.61Zm-102-13.55c-.09,3.34,1.71,5.69,4.46,5.8s4.54-1.86,4.89-5.11a32.87,32.87,0,0,1,.48-4.21c2.06-8.47,9-14.17,18.08-14.86,3.72-.28,5.77-2.1,5.61-5-.15-2.73-2.32-4.46-5.49-4.39C87.38,391.62,74.58,404.3,74.16,419.06Z" style="fill:#4d4d4d"/><path d="M176.14,432.61c-14.85,21.45-33.72,37-60.07,41.36-24.53,4-46.27-2.72-65.39-18.37a96.44,96.44,0,0,1-19.26-21.36,3.53,3.53,0,0,1-.36-3.09c8.77-13.34,19.87-24.22,34.14-31.65a3.23,3.23,0,0,1,.83-.11c-5.88,11.1-7.1,22.55-3.29,34.37,3,9.21,8.8,16.35,16.68,21.8a42.16,42.16,0,0,0,51.05-2.75c14.94-12.67,20-33.64,9.95-53.16C149,401.5,167.51,418.51,176.14,432.61Z" style="fill:#fff"/><path d="M74.16,419.06c.42-14.76,13.22-27.44,28-27.76,3.17-.07,5.34,1.66,5.49,4.39.16,2.89-1.89,4.71-5.61,5-9,.69-16,6.39-18.08,14.86a32.87,32.87,0,0,0-.48,4.21c-.35,3.25-2.25,5.23-4.89,5.11S74.07,422.4,74.16,419.06Z" style="fill:#fbb05d"/><path d="M312.73,377.68h12.16c2,.26,4,.49,6,.78a96.64,96.64,0,0,1,47.22,20.62c10.83,8.65,20.27,18.54,25.89,31.52v3.65a47.64,47.64,0,0,1-2.67,5.69c-13.73,21.64-32.83,36.32-57.42,43.57-6.16,1.81-12.65,2.47-19,3.66H312.73c-2-.26-4-.5-6-.78a97.13,97.13,0,0,1-49.83-22.69c-9.69-8.23-18.28-17.45-23.27-29.45V430.6a40.86,40.86,0,0,1,2.48-5.46c13.77-21.72,32.95-36.49,57.62-43.79C299.9,379.53,306.39,378.87,312.73,377.68Zm79.06,54.93c-8.63-14.1-27.16-31.11-35.72-33,10.08,19.52,5,40.49-9.95,53.16a42.16,42.16,0,0,1-51.05,2.75c-7.88-5.45-13.72-12.59-16.68-21.8-3.81-11.82-2.6-23.27,3.28-34.37a3.2,3.2,0,0,0-.82.11c-14.27,7.43-25.37,18.31-34.14,31.65a3.53,3.53,0,0,0,.36,3.09,96.44,96.44,0,0,0,19.26,21.36C285.45,471.25,307.19,478,331.72,474,358.07,469.62,376.94,454.06,391.79,432.61Zm-102-13.55c-.09,3.34,1.71,5.69,4.46,5.8s4.54-1.86,4.89-5.11a32.87,32.87,0,0,1,.48-4.21c2.05-8.47,9-14.17,18.07-14.86,3.73-.28,5.78-2.1,5.62-5-.15-2.73-2.32-4.46-5.5-4.39C303,391.62,290.23,404.3,289.81,419.06Z" style="fill:#4d4d4d"/><path d="M391.79,432.61c-14.85,21.45-33.72,37-60.07,41.36-24.53,4-46.27-2.72-65.39-18.37a96.44,96.44,0,0,1-19.26-21.36,3.53,3.53,0,0,1-.36-3.09c8.77-13.34,19.87-24.22,34.14-31.65a3.2,3.2,0,0,1,.82-.11c-5.88,11.1-7.09,22.55-3.28,34.37,3,9.21,8.8,16.35,16.68,21.8a42.16,42.16,0,0,0,51.05-2.75c14.94-12.67,20-33.64,9.95-53.16C364.63,401.5,383.16,418.51,391.79,432.61Z" style="fill:#fff"/><path d="M289.81,419.06c.42-14.76,13.22-27.44,28-27.76,3.18-.07,5.35,1.66,5.5,4.39.16,2.89-1.89,4.71-5.62,5-9,.69-16,6.39-18.07,14.86a32.87,32.87,0,0,0-.48,4.21c-.35,3.25-2.25,5.23-4.89,5.11S289.72,422.4,289.81,419.06Z" style="fill:#fbb05d"/></svg>