<svg id="Layer_1" data-name="Layer 1" xmlns="http://www.w3.org/2000/svg" viewBox="0 0 1000 1000"><title>birthday icon pink</title><path d="M869.49,794.31c0-1.72,0-3.43-.06-5.14"/><path d="M937.15,679.67c-.31-11.19-.82-22.37-.83-33.56,0-36.51.39-73,.17-109.54-.36-58.73-45.94-107.52-104.44-111.53-16.88-1.16-33.89-.57-50.84-.81-2.78,0-5.56-.24-9.22-.41,0-4,0-7.32,0-10.64q-.27-93.49-.42-187c0-6-1-8.95-8-8.91-28.4.17-56.82.09-85.21-.6-8.1-.19-9.93,2.24-9.89,10,.33,61.84.21,123.68.19,185.52,0,14.29.63,11.91-12.31,12-31.27.14-62.54.05-93.82.08-11,0-11.06,0-11.06-11,0-62.62-.11-125.25.15-187.86,0-7-1.94-8.82-8.8-8.74-29,.38-57.92.16-86.88.19-2.52,0-5,.28-8.45.47v11.45c0,62.36-.08,124.72.11,187.08,0,6.28-1.46,8.56-8.22,8.5-33.88-.34-67.77-.15-101.66-.19-2.23,0-4.45-.44-7.62-.77V217.22h-103V243.8q0,86.49.16,173c0,5.64-1.4,7.81-7.49,7.62-14.6-.45-29.22-.25-43.83-.12C114.25,424.88,64.2,472.7,62.84,534c-.73,32.8.41,65.7,2.25,98.47,1,17.91,5.51,35.63,19.68,48.63,3.88,3.56,5,7.23,5,12.24-.13,72.54.32,145.08-.23,217.61-.3,39.77,30.36,72.59,72.62,72.09,90.44-1,180.91-.28,271.36-.33,57.11,0,114.22-.3,171.33-.32,80.35,0,160.71.28,241.06-.09,8,0,16.67-2.5,23.94-6,26.71-13.06,39.47-35.44,39.59-64.85.23-56.88,0-113.76.28-170.64,0-3.59,1.7-8.48,4.34-10.55C930.6,717.21,937.72,700.29,937.15,679.67ZM701.76,335.94V250.77h36.82v173.4l-8.57,0q-4.25,0-8.43,0c-5.59,0-11.12-.09-16.64-.38a.71.71,0,0,1-.23-.06,1.64,1.64,0,0,1-.49-.42c-.08-.1-.17-.21-.25-.33a8.27,8.27,0,0,1-.64-1.13c-.07-.15-.15-.31-.22-.48-.17-.41-.34-.84-.49-1.29,0-.11-.08-.23-.11-.34-.1-.32-.19-.64-.27-.95l-.06-.26c-.08-.32-.14-.64-.19-.94a.78.78,0,0,0,0-.16,7.3,7.3,0,0,1-.08-1q-.09-10.07-.12-20.14t0-20.13Q701.74,356.06,701.76,335.94ZM480.91,306.6h0q0-6.06,0-12.12c.05-12.11.12-24.23-.15-36.34a16.22,16.22,0,0,1,.17-2.92,7.75,7.75,0,0,1,.38-1.51c.93-2.46,3.11-3.27,7.09-3,1.82.11,3.64.2,5.47.26,5.47.18,11,.11,16.41-.25a15.66,15.66,0,0,1,3,0,7.69,7.69,0,0,1,1.58.34,4.7,4.7,0,0,1,1.75,1.05,5.19,5.19,0,0,1,1.34,2.5,15.76,15.76,0,0,1,.37,3.91c-.22,19.74-.18,39.48-.15,59.22q0,9.87,0,19.74c0,26.32-.15,52.65.12,79,0,2.68-.32,4.61-1.24,5.9a3.6,3.6,0,0,1-.43.52c-1.24,1.26-3.26,1.71-6.36,1.49-3.5-.25-7-.37-10.55-.37s-7,.12-10.55.37c-6.48.47-8.5-1.77-8.45-8.31q.11-13.69.14-27.39.07-27.33,0-54.67Q480.92,320.3,480.91,306.6Zm-211.2-56c2.19.15,4.39.23,6.6.27,1.1,0,2.21,0,3.32,0,2.23,0,4.47,0,6.73-.05,3.4-.05,6.85-.11,10.37-.11V424.21h0c-5.6,0-11.07.06-16.46.06-2.7,0-5.38,0-8-.08s-5.33-.15-8-.29c-.56,0-1.25-.63-1.9-1.5L262,422c-.17-.25-.32-.51-.47-.78a12.06,12.06,0,0,1-.77-1.63l-.14-.39a6.26,6.26,0,0,1-.37-1.82c-.1-3.58-.16-7.17-.19-10.75-.11-10.76,0-21.52,0-32.28,0-38.09.21-76.17-.17-114.25C259.85,252.34,262.28,250.05,269.71,250.56ZM869.18,912.45c-.65,19.18-11.64,29.81-30.66,29.81q-232.78,0-465.56,0-105.6,0-211.18,0c-20.7,0-31.42-10.39-31.82-31-.17-8.87,0-197.36-.1-222.92,0-4.11,1.29-3.58,6.14-4.39,24.16-4,38.89-21.52,47-43,1.93-5.1,2.58-11.11,5-16,5.18-10.49,12.25-11.1,23-6,15.77,7.49,19.57,20.23,23,36,3.82,17.54,6.93,36.84,12,54,6.63,22.45,22.94,40.76,44,51,18.36,8.93,48.14-2.28,62-22,10.19-14.51,16.31-30.37,25-46,5.13-9.22,8.46-20,17-26,10-7,16-8,24,5,6.78,11,12,21,18,33,15.83,31.66,29.89,59.73,64,72,38.38,13.81,92-4.42,110-41,8-16.28,14.59-34,21-51,6.13-16.27,11.86-29,26-40,15.06-11.76,27.16-12.23,37,4,8.52,14,15.1,30.51,21,46,5.8,15.24,10.85,30.49,23,42,24,22.73,65.79,23.81,87-8,5.48-8.23,10.27-17,16-25,2.34-3.29,3.53-4.86,7-7a11.71,11.71,0,0,1,9-1c9.59,2.4,12.84,9,12.76,20.32C869.57,739.93,869.47,904.12,869.18,912.45Zm24.91-222.34c-3.3-4.2-6.5-8.46-9.9-12.57-17-20.5-40.43-23.5-59.61-6.78-6.76,5.9-12.09,13.55-17.52,20.81-4.5,6-7.66,13.08-12.34,18.93-8.48,10.59-18.54,11.15-29.36,2.73-10.6-8.26-15.29-20-20-32-6.5-16.68-12.17-33.94-20.9-49.43-14-24.82-39.47-35.09-65.3-27.85C639.41,609.48,624.87,623,615,640.31c-8.08,14.1-13.32,29.83-19.88,44.81-5.74,13.08-10.11,27-17.65,39-18.94,30-61,28.27-84.34,9.45-16.78-13.53-25.19-31.83-32.8-51.23C455,668.93,449,655.16,440.39,643.84c-16-20.93-43.85-22.6-64.79-6.5-15.3,11.77-23.5,28.07-31.15,45.06-5.42,12-10.61,24.53-18.21,35.16-10,14-24.83,13.67-36.59,1.12-8.84-9.43-13.37-20.92-15.95-33.38-3.6-17.31-6.53-34.83-11.22-51.85-6.8-24.64-23.31-40.73-47.59-48.66-20.69-6.76-44.1,3.66-54.45,24.43-4.64,9.31-8.19,19.17-12.76,28.51C142.82,647.66,132,653,121,651.54c-9.49-1.25-13.58-4.44-14.65-14.28-1.69-15.53-2.78-31.16-3.3-46.77-.55-16.68-.14-33.39-.13-50.09,0-43.76,31.38-75.65,75.27-75.76,83.74-.21,167.49-.06,251.23-.06q193.92,0,387.85-.06c29.69,0,53.21,11,69,36.58,6.85,11.12,9.85,23.47,9.88,36.52l.24,133.83q0,9,0,18.09Z" style="fill:#ff7e65"/><path d="M550.23,115.7c-6.4-38.48-24.5-71-50.65-100.53-14.81,16.4-27,33.83-35.88,53.4-14.17,31.3-22.17,63.35-11.36,97.73,6.43,20.45,23,35,43.14,36.56,21.16,1.67,38.84-8.79,48-29.08C551.94,155.22,553.57,135.74,550.23,115.7ZM517,148.28c-.75,4.54-2,9.73-4.81,13-3.21,3.71-8.54,7.78-12.88,7.69s-10.31-4.13-12.53-8.13c-7.68-13.86-7.52-29.42-4-44.2s9.58-28.92,14.52-43.34l3.26.52C512.92,97.05,521.41,121.24,517,148.28Z" style="fill:#ff7e65"/><path d="M720.57,15c-27,30.23-45.54,63.33-51,102.43-3,21.6-1.69,43.16,10.16,62.88,14.14,23.52,43.77,28.28,64.9,16.13,20.24-11.65,25.54-31.82,27-52.66C775.13,93.34,752.38,52.84,720.57,15ZM736,154.72c-1.36,5.19-5.81,10.79-10.41,13.66-8.1,5.06-17.43-1.73-20.92-13.4-5.3-17.75-3.06-35.17,2.43-52.25,3.14-9.8,7.73-19.13,11.67-28.68l2.71.3C735.18,99.46,743.58,125.75,736,154.72Z" style="fill:#ff7e65"/><path d="M312.24,63.68A213.38,213.38,0,0,0,279.32,16c-1,.35-1.6.39-1.88.71-2.38,2.75-4.74,5.5-7,8.33-21.43,26.59-37.22,56-42,90.15-3.4,24.11-2.64,48,13,68.72,8.39,11.09,19.68,17.94,33.6,18.88,28.59,1.92,48-16.6,53.68-47C334.8,123.22,326.85,92.77,312.24,63.68Zm-19.4,95.69c-2.64,7.57-7.61,10.82-15.22,10.31-7.1-.48-11.62-5-13.37-11.35-2.07-7.46-3.82-15.25-4-22.94-.5-22.12,7-42.09,18.68-63.32C293.5,101.34,303.59,128.62,292.84,159.37Z" style="fill:#ff7e65"/></svg>