<svg id="Layer_1" data-name="Layer 1" xmlns="http://www.w3.org/2000/svg" viewBox="0 0 1000 1000"><title>block icon</title><path d="M990,468.41A506.82,506.82,0,0,1,964,663.8C931.22,759.45,868.89,840,787.14,899c-123.73,89.3-282.1,114-428.43,72.06-62.5-17.91-120.88-47.22-170.28-89.64C34.22,749-22.32,580.41,23.38,383.57,83.45,124.85,334.28-28,590.11,18.57c79.94,14.54,152.32,47,215.66,98.18C848,150.85,885.44,191,915,236.61,959.91,306.07,984.86,386.54,990,468.41ZM711,803.57l-514-514C111.87,396.42,90.11,603.09,224.86,751,363.43,903.09,582.87,900.74,711,803.57Zm90.48-90.76C895.86,588.15,905.3,369,749.24,226.67,599.45,90,391.15,115.3,287.7,199Z" style="fill:#ed2020"/><path d="M711,803.57C582.87,900.74,363.43,903.09,224.86,751,90.11,603.09,111.87,396.42,197,289.55Z" style="fill:#fff"/><path d="M801.49,712.81,287.7,199C391.15,115.3,599.45,90,749.24,226.67,905.3,369,895.86,588.15,801.49,712.81Z" style="fill:#fff"/></svg>