<svg id="Layer_1" data-name="Layer 1" xmlns="http://www.w3.org/2000/svg" viewBox="0 0 1000 1000"><title>boy icon pink</title><circle cx="383.87" cy="620.58" r="370.42" style="fill:#ff7e65"/><path d="M382.94,887.83h-7c-18.94,0-37.51-2.9-55.86-7.39A450.42,450.42,0,0,1,272,865.58a35.68,35.68,0,0,1-10.26-5.38,84.79,84.79,0,0,0-11.22-7.1A271.43,271.43,0,0,1,189.89,806a254,254,0,0,1-38.27-51.45,279,279,0,0,1-28.63-73,249.46,249.46,0,0,1-5.33-31.08,246.64,246.64,0,0,1-1.7-28.73,283.14,283.14,0,0,1,20.39-102.61A255.18,255.18,0,0,1,175.79,452c18.49-22.7,40.36-41.58,65-57.37a256.3,256.3,0,0,1,80.05-34.34A252.77,252.77,0,0,1,351.86,355c8.64-.93,17.3-1.6,26-1.68a303.28,303.28,0,0,1,56.73,5,268.68,268.68,0,0,1,53.12,15.29,246.3,246.3,0,0,1,78.57,50.91,287,287,0,0,1,63.42,89.41A252.08,252.08,0,0,1,651,637c-3,40.63-13.55,79.23-33.42,115a255.86,255.86,0,0,1-54.84,67.73,281.79,281.79,0,0,1-46.19,33.39,257.15,257.15,0,0,1-133.64,34.64Z" style="fill:#fefefe"/><rect x="566.06" y="172.78" width="425.89" height="105.34" transform="translate(68.75 616.87) rotate(-45)" style="fill:#ff7e65"/><rect x="727.89" y="167.08" width="409.6" height="107.7" rx="51.87" transform="translate(711.76 1153.63) rotate(-90)" style="fill:#ff7e65"/><rect x="574.2" y="14.04" width="409.6" height="107.63" rx="51.84" style="fill:#ff7e65"/></svg>