<svg id="Layer_1" data-name="Layer 1" xmlns="http://www.w3.org/2000/svg" viewBox="0 0 1000 1000"><title>career icon pink </title><path d="M984.67,309.21c-.35-2.83-1.68-5.43-2.93-7.95s-2.27-4.82-3.39-7.25-2.26-4.81-3.44-7.19-2.27-4.49-3.46-6.71-2.29-4.19-3.5-6.25-2.33-3.9-3.55-5.81-2.38-3.61-3.64-5.38-2.45-3.34-3.74-4.95-2.53-3.08-3.86-4.56-2.63-2.82-4-4.16-2.74-2.58-4.18-3.8-2.87-2.34-4.36-3.43-3-2.11-4.58-3.09-3.17-1.89-4.81-2.75-3.35-1.69-5.07-2.45-3.54-1.48-5.34-2.14-3.74-1.29-5.64-1.85-4-1.11-6-1.58-4.2-.94-6.31-1.33-4.44-.76-6.67-1.08-4.7-.61-7.05-.85-5-.46-7.47-.64-5.26-.32-7.89-.43c-2.78-.12-5.56-.2-8.34-.26q-4.4-.07-8.77-.08c-41.76,0-83.52,0-126.56,0C728.31,216,726.49,210,725.32,204,710.45,127.16,671.5,87.08,595,71.3a462.74,462.74,0,0,0-189.34.16c-75.31,15.66-114.52,56-129.12,131.06-1.2,6.19-2.68,12.32-4.52,20.72-40.63,0-80.86,2.18-120.76-.49q-4.17-.28-8.36-.42c-4.53-.13-9.06-.13-13.58,0q-6.51.24-13,1c-4.14.47-8.26,1.1-12.35,1.92q-5.91,1.17-11.71,2.89a117.29,117.29,0,0,0-11.07,3.92,108.94,108.94,0,0,0-10.41,5A102.44,102.44,0,0,0,52,250.17a105.61,105.61,0,0,0-8.39,8.27,114.26,114.26,0,0,0-7.7,9.43c-2.5,3.42-4.83,7-7,10.61-2.29,3.88-4.38,7.87-6.31,11.94s-4,7.84-5.16,12.07C15.91,308,17,314.37,17,320V850.38C38.23,911.51,82,933.44,145.41,933q355.41-2.58,710.85,0c63.48.47,107.07-21.68,128.43-82.61V333.47c0-6,.08-12.06,0-18.08A60.66,60.66,0,0,0,984.67,309.21ZM405.86,154.44c51.1-15.36,103.57-13.65,155.71-7.17,18,2.24,36.24,8.06,52.64,15.88,23,11,32.64,31.53,31.36,58.65H358.16C353.94,188.87,369.82,165.26,405.86,154.44ZM107.4,286.29c8.29-2.39,17.53-2,26.33-2q367.53-.15,735.07.14c11,0,23.13.84,32.66,5.53,16.91,8.34,24.72,20.24,12,40.59-24.66,39.62-46.84,80.78-70.13,121.25-18.22,31.66-46.41,50.87-81.93,52.81-50.55,2.75-101.36.7-154.5.7-1.35-10.55-2.12-18.47-3.41-26.31-5.2-31.57-28.78-53.63-60.92-55.17-24.94-1.19-50-.83-74.94-.43-41.95.67-65.67,22.29-70.84,63.7-.69,5.46-1.58,10.89-2.51,17.25-53.92,0-107.06,2.38-159.85-.86C200.91,501.38,174.85,481,157.73,451,135,411.1,112,371.37,89.24,331.54,77.07,310.28,83.57,293.15,107.4,286.29ZM545,606c-.13,3.34-85,2-85,2s-.87-1.79-1-9c-.26-15-1.71-40.74-1.71-56V483.24c27.09,0,59.85-1.55,83.71-.24C545.28,483.23,546.26,573.84,545,606ZM924,814.51C924,858,911.09,871,868.14,871q-367.44.11-734.87,0c-42.06,0-55.63-13.1-55.69-54.28q-.27-176.47,0-352.93c0-6.34.68-12.67,1-19l4.91-1.28c7.13,12.32,14.08,24.74,21.43,36.93,33.43,55.52,82.34,84.46,147.4,84.92,46.62.33,93.26.07,142.54.07.64,12.39,1.16,23.25,1.76,34.1,2.35,42.15,27.37,67,69.21,67.92,22.55.51,45.12.41,67.68,0,44.67-.74,69.68-25.57,71.4-70.6.36-9.52.05-19.07.05-31.46,42.56,0,82.74-1.66,122.73.35,83.15,4.17,142.82-30.06,179.95-104.34,3.1-6.21,7.3-11.87,14.1-22.77,1.09,12.07,2.2,18.68,2.2,25.29Q924.13,639.25,924,814.51Z" style="fill:#ff7e65"/><path d="M457.29,483.24c27.09,0,51.07-.68,74.93.62,4.27.24,11.44,8.57,11.59,13.34,1,32.17,1.15,64.42-.11,96.58-.19,4.86-9,9.42-14,14-.44.4-1.57,0-2.37.08-70.07,4.56-70.07,4.56-70.07-64.86Z" style="fill:#fff"/><rect x="451" y="475" width="101" height="139" rx="18" style="fill:#fff"/></svg>