<svg id="Layer_1" data-name="Layer 1" xmlns="http://www.w3.org/2000/svg" viewBox="0 0 1000 1000"><title>external view</title><path d="M497.17,182c211,6.81,366.36,105.11,470.56,287.74,11.7,20.49,10.66,39.21-1,59.36-104.9,180.75-257,288-470.07,288.25C282.29,817.57,129,709.8,24.79,527.61c-8.26-14.43-9.44-41.31-1.47-55.34C127.36,289.05,284,189.75,497.17,182Zm.84,96.68c-156.59,3.57-277.54,72.8-367.49,199.79-10.12,14.27-10.44,24.9-.75,40.09,172.67,270.73,555.42,271.37,730.55,1.21,10.28-15.86,10.49-27.32-.22-42.75C772.37,350.66,653,282.73,498,278.68Z" style="fill:#f78636"/><path d="M651.81,497.83c-.64,85.87-73.21,157-158.43,155.32-86.59-1.72-155.51-72.93-154.27-159.4,1.22-85.16,71-153.18,156.84-153A155.74,155.74,0,0,1,651.81,497.83ZM494.73,437.12c-33,.33-58.93,25.92-59.36,58.58-.44,33.12,27.81,61.51,60.74,61.05C528,556.3,555,529.26,555.5,497.3,556,463.55,529,436.79,494.73,437.12Z" style="fill:#fbb05d"/></svg>