<svg id="Layer_1" data-name="Layer 1" xmlns="http://www.w3.org/2000/svg" viewBox="0 0 1000 1000"><title>feedback icon orange</title><path d="M206.12,970a80.2,80.2,0,0,1-38.69-22.13c-14.27-14.35-20.11-32.09-22.3-51.5a79.25,79.25,0,0,1-.11-8.86q0-349.71-.1-699.44c0-17.49,3-34.12,12.48-48.72a80,80,0,0,1,41.32-32.55c11.13-4,22.29-3.94,33.63-4,20.47-.07,40.93-.15,61.4.05,7.57.07,13-.23,17.4-9,11.07-22,30.94-31,55-31.18,16-.14,32.07-.21,48.11,0,5.76.09,9.76-1.85,13.64-6.2A96.3,96.3,0,0,1,479,26.11,100.05,100.05,0,0,1,502.47,23c17.44.07,33.29,5.7,48.28,14.12a91.7,91.7,0,0,1,24.48,20.63,13.39,13.39,0,0,0,11.06,4.93c16.45-.13,32.91-.18,49.37,0,18.12.21,34.39,5.19,47.08,19.06,4,4.39,7.69,9.24,9.78,14.54,2.19,5.58,5.52,6.58,10.6,6.56q38.29-.12,76.59,0c25.37.1,45.25,11.33,60.77,30.79,11.88,14.89,16.6,32.46,16.64,51.13q.28,132.92.09,265.85,0,220-.1,439.92c0,27.71-11,50.57-33.76,67.11A74.74,74.74,0,0,1,796.11,970ZM183.74,536.65q0,172.8,0,345.6a98,98,0,0,0,.25,11.38c1.08,9.06,3.24,17.73,9.52,24.91,9.71,11.1,22,15.31,36.48,15.3q257.31-.14,514.61-.06c11,0,21.95.27,32.91-.13a41.6,41.6,0,0,0,29.64-13.44c9.35-9.9,11.33-22.15,11.33-35.08q0-348.45,0-696.9c0-1.48,0-3,0-4.43-1.28-24.78-18.14-43.18-43.53-42.67-22.77.46-45.57.21-68.35,0-6.07-.06-9,1.92-8.84,8.28.26,12-4.31,22.8-10.31,32.61-16.19,26.5-41.19,38.88-71.41,39.13-76.58.62-153.17.3-229.76.1a84.19,84.19,0,0,1-34.89-7.46c-28.19-12.82-44.31-34.4-46.92-65.48-.43-5.05-2.33-7.15-7.34-7.12-25.1.12-50.21,0-75.32.23-10.94.11-19.77,5.4-27,13.22-8.66,9.35-11,20.87-11,33.25Q183.78,362.26,183.74,536.65ZM500.9,181.74c39.43,0,78.86.1,118.3,0,21.81-.08,41.28-18.68,40.18-40-.3-5.68-.62-11.46.09-17.06,1.51-12-8.79-22.92-22-22.47-20.64.71-41.33-.19-62,.33-11.94.3-19.85-4.9-26.07-14.47C538.78,71.69,523,62.88,504,62.12c-21.66-.86-39.76,7.74-51.8,26.72-5.89,9.3-13.89,13.87-25.21,13.64-20.87-.43-41.76,0-62.63-.19-8.07-.08-13.91,2.9-18.73,9.41-4,5.46-2.64,11.32-2.67,17,0,8.19-1.58,16.64,1.07,24.53,6,17.79,21.53,28.45,40.44,28.47Q442.7,181.77,500.9,181.74Z" style="fill:#e84f36"/><path d="M343,656q28.17,0,56.33,0c12.7,0,20.88,7.35,22.4,20a42.66,42.66,0,0,1,.32,5c0,36.5.15,73,0,109.49-.07,15.36-7,22.73-22.38,22.88q-57,.55-113.91,0c-15.32-.16-21.63-7.33-21.65-22.57-.05-37.12.27-74.25-.18-111.38-.15-13.29,9.35-24.28,23.42-23.67C305.84,656.59,324.43,656,343,656Zm-.53,118.16h34.13c4.16,0,6.71-1.28,6.68-6.19-.16-21.49,0-43-.15-64.46,0-7-1.75-8.55-8.65-8.56q-30.64-.06-61.3,0c-9.1,0-10.32,1.07-10.36,10.06-.09,20.64.1,41.29-.15,61.93-.07,5.71,2.4,7.37,7.58,7.29C321,774,331.72,774.15,342.46,774.14Z" style="fill:#e84f36"/><path d="M342.85,496.71c-19,0-38,.12-57,0-14.86-.12-21.74-6.91-21.79-21.7q-.18-56.66,0-113.3c0-13.6,8.59-22.12,22.12-22.14q56.34-.1,112.67,0c14,0,22.73,8.47,23.05,22.81.37,16,.15,32.07.16,48.11,0,20.89.11,41.78-.07,62.66-.06,7.25-1.57,14.08-7.39,19.42-4.2,3.84-9.15,4.09-14.18,4.12C381.26,496.78,362.05,496.7,342.85,496.71Zm-.57-38.45c11.19,0,22.37,0,33.55,0,4.84,0,7.43-1.79,7.39-7.09-.13-21.52,0-43-.11-64.56,0-7.09-1.59-8.39-8.73-8.39q-31,0-62,0c-8.1,0-9.47,1.21-9.52,9.58-.11,20.88.08,41.77-.12,62.66-.06,5.8,2.35,7.93,7.93,7.84C321.18,458.14,331.73,458.27,342.28,458.26Z" style="fill:#e84f36"/><path d="M599,497c-18,0-35-2.46-51.19-10-18.19-8.44-33.52-20.68-43.74-38.4-5.11-8.85-.77-23.11,8.33-28.13,7.55-4.17,19.55-.24,24.91,7.77,11.86,17.75,28.85,27.11,49.83,29.12a143.46,143.46,0,0,0,23.36.13c22-1.51,39.89-10.72,52.35-29.37,5.79-8.66,18-11.72,25.93-6.36A20.69,20.69,0,0,1,695,449.88c-12.3,19.84-30.36,32.37-51.52,40.54C629.45,495.83,615,497,599,497Z" style="fill:#ffc200"/><path d="M602,735c22,0,43.54,6.25,63.45,18.35a89.84,89.84,0,0,1,30.76,32c4.74,8.14,1.09,20.24-7.07,25.64-7.3,4.83-20.47,2.74-25.43-5a64,64,0,0,0-29.17-25,77.61,77.61,0,0,0-22.92-6.31c-17.47-1.71-34.47.21-50.38,8.13-9.76,4.85-18,11.58-23.56,21.18-4.58,7.85-13.09,11-22.93,8.41-7.42-1.92-12-9-12.65-17.71-.74-10.33,5.81-16.88,11.66-23.53,14.6-16.55,33.06-26.48,54.51-31.92C578.9,736.6,581.24,735.12,602,735Z" style="fill:red"/><path d="M540.58,694.66c-12.23.62-18.69-9-19.34-19-.63-9.55,9.74-19.59,19.41-19.62,10.61,0,18.91,8.91,18.79,20.21C559.31,687.36,551.84,694.64,540.58,694.66Z" style="fill:red"/><path d="M540.69,378.14c-12.55.46-18.74-8.94-19.42-18.85-.67-9.64,9.61-19.65,19.29-19.72,10.4-.08,18.76,8.57,18.84,19.47C559.48,370.65,552.14,378.14,540.69,378.14Z" style="fill:#ffc200"/><path d="M659.1,694.71c-11-.11-19-8.3-18.87-19.28.12-10.15,9.51-19.53,19.4-19.39s18.92,9.66,18.81,19.93C678.32,687,670.22,694.82,659.1,694.71Z" style="fill:red"/><path d="M659.12,378c-11.15-.06-19.09-8.08-18.89-19.06.2-10.24,9.5-19.57,19.36-19.42s18.92,9.6,18.85,19.88C678.36,370.45,670.45,378.07,659.12,378Z" style="fill:#ffc200"/></svg>