<svg id="Layer_1" data-name="Layer 1" xmlns="http://www.w3.org/2000/svg" viewBox="0 0 1000 1000"><title>flag icon pink </title><path d="M12.47,169c0-2.17,24.85-10.22,27.74-11.32,8.57-3.27,17.4-5.68,25.88-8.86,18.14-6.81,36.1-13.53,54.81-18.66a491.34,491.34,0,0,1,236.56-5.61c39.48,8.89,77.4,24.32,114.78,39.66,17.49,7.18,35,14.42,52.65,21.09,68.7,25.88,140.05,44.74,214.05,42.82,84.65-2.19,166.79-28.09,246.44-56.85C987,176.69,987,182.16,987,187.8c0,208.88-.72,417.33,0,626.2-.12,5,0,17,0,18-55,18.35-111.09,38.34-168.4,48a528.34,528.34,0,0,1-224.8-10.8c-42-11.34-81.74-29.29-122.1-45.27-71.13-28.16-142.52-52.39-220.07-51.91-40.94.26-81.57,7.12-121.12,17.38-19.91,5.17-39.58,11.2-59.09,17.72q-14.62,4.9-29.15,10.12c-8.3,3-17.25,7.83-26.12,8.5-.23,0-3.41.15-3.42.06Q12.61,497.39,12.47,169Z" style="fill:#ff7e65"/><path d="M987,330.3q0,214.56.56,429.13c-.12,5,.43,16.62.47,17.57-3,1-84.33,27-118.87,36.86-67.91,19.44-143.6,24.35-213.48,13.93-79.77-11.9-153.25-47.71-227.93-76.21-20.42-7.79-41.12-14.94-62.38-20.09A479.6,479.6,0,0,0,253,718.06c-74.88-.09-146.7,20-216.27,46.14-7.92,3-15.27,7-24,6.63L12.55,307.4" style="fill:#fff"/><path d="M13.55,419.4q0-96.72-.08-193.45c0-2.18,25-10.27,27.9-11.38,9.76-3.72,19.61-7.24,29.49-10.64,17.75-6.12,35.55-12.32,53.68-17.27a480.22,480.22,0,0,1,113-16.71A486.84,486.84,0,0,1,356,181.14c39.2,8.66,76.38,23.28,113.42,38.46,18.76,7.68,37.48,15.5,56.46,22.65C590,266.41,657.8,285.1,726.77,285.57c44.27.3,88.29-7,131.32-17.35A1053.14,1053.14,0,0,0,987,227.8c3.17,71.34,1,143.09,1,214.5" style="fill:#fff"/><rect x="13" y="169" width="54" height="620" style="fill:#ff7e65"/><rect x="933" y="202" width="54" height="620" style="fill:#ff7e65"/></svg>