<svg id="Layer_1" data-name="Layer 1" xmlns="http://www.w3.org/2000/svg" viewBox="0 0 1000 1000"><title>flag icon</title><path d="M325,120.12c24.27,10.53,48.58,20.92,72.81,31.61Q605.3,243.26,812.7,334.92c1.8.8,3.57,1.71,6.3,3l-81.58,36Q535.15,463.23,332.87,552.44c-2.58,1.13-5,3.3-8,2.56-3-3.89-2.88-9-3.27-13.8-1.25-15.75-2-31.59-2.36-47.37-.42-18.55-1.26-37.09-1.8-55.63-1.53-52.7-1.74-105.42-.92-158.1.57-36.25,1.14-72.56,3.33-108.77.74-12.23.93-24.53,1.69-36.78C321.86,129.44,321.62,124.06,325,120.12Z" style="fill:#db2819"/><path d="M214.31,587.42c-.17-4.35-.47-8.7-.47-13q0-239,0-478.08c0-2.71.24-5.43.36-8.15,2.45-2.73,5.76-2.88,9-2.9,16.05-.12,32.1-.17,48.15,0,3.8,0,7.79.1,9.8,4.35l.37,14.38c2.33,4,2.4,8.34,2.4,12.73q.06,221.65,0,443.32c0,4.09.19,8.26-2.61,11.74l-.27,14.29c-1.68,4.06-5.36,4.3-8.9,4.36-16.59.27-33.19.22-49.78,0C219.38,590.43,216.34,590.17,214.31,587.42Z" style="fill:#db2819"/><path d="M281.13,592.84q.06,59.83.11,119.68,0,128.31,0,256.6c0,12.33-1.71,14-14.27,14-14.21,0-28.42-.2-42.62.08-7.22.14-10.42-2.5-10.41-10q.21-172.16.18-344.31c3.16-2.82,7.08-2.47,10.85-2.5,13.34-.09,26.67,0,40,0,11.73-.05,12-.32,12.06-11.74,0-4.9-.27-9.82.21-14.69C277.53,597.15,277,593.63,281.13,592.84Z" style="fill:#d7d7d7"/><path d="M281.33,571.79q0-228,0-455.89c0-4-1.44-8,.2-11.9,15.49,4.8,30.83,10,45.87,16.12-3.34,28.66-3.81,57.48-5.44,86.25-3.64,64.35-3.37,128.72-2.74,193.08.31,31.83,2.18,63.67,3.23,95.5.66,20.05,3.09,40,4.73,60.05C312.48,562.14,296.7,566.42,281.33,571.79Z" style="fill:#c32114"/><path d="M281.17,89.62c-2.56-2.22-5.66-1.4-8.56-1.41-19.47-.07-38.94-.06-58.41-.07-.06-15.54,0-31.08-.22-46.61-.09-6.44,2.47-9.59,9.15-9.53q23.72.21,47.43,0c7.63-.07,10.82,3.57,10.74,11C281.13,58.56,281.2,74.09,281.17,89.62Z" style="fill:#d7d7d7"/><path d="M281.13,592.84c-3.17,9-1.26,18.25-1.28,27.35,0,6.52-1.48,9.08-8.56,8.9-19.05-.49-38.11-.2-57.16-.21l.18-41.46q29-.07,58-.15c2.95,0,6,.58,8.75-1.19C281.08,588.33,281.11,590.58,281.13,592.84Z" style="fill:#c1c1c1"/></svg>