<svg id="Layer_1" data-name="Layer 1" xmlns="http://www.w3.org/2000/svg" xmlns:xlink="http://www.w3.org/1999/xlink" viewBox="0 0 1000 1000"><defs><linearGradient id="linear-gradient" x1="503.95" y1="963" x2="503.95" y2="441.83" gradientUnits="userSpaceOnUse"><stop offset="0" stop-color="#f9d82b"/><stop offset="1" stop-color="#e4423b"/></linearGradient></defs><title>following icon</title><path d="M505.41,962.94Q364.71,963,224,963c-29.26,0-56.58-5.33-79.63-25-24.86-21.17-39.34-47.72-39.55-80.55-.42-63.92-2.91-128,.92-191.72,5.62-93.55,50.35-166.65,128.31-219a28.66,28.66,0,0,1,39.14,6.65c9.12,11.95,7.37,29.06-4.19,39.56a81.2,81.2,0,0,1-7.54,5.54C199,542.9,164.84,602.9,163.33,679.86c-1.11,56.95-.46,113.95-.34,170.92.08,33.25,20.75,53.71,54.28,53.72q258,.12,515.92,0c19.46,0,38.92.21,58.37.08,33.16-.23,54-21.07,54-54.15.06-54.55-.13-109.09.06-163.64.08-22.31,18.5-36.56,38.15-30.09,11.7,3.85,20,13.92,20,26.42.17,59.75,1.24,119.54-.41,179.25-1.55,56.37-51.07,100.37-110.27,100.49C697.19,963.09,601.3,962.94,505.41,962.94Z" style="fill:url(#linear-gradient)"/><path d="M502.48,962.94q140.7,0,281.41.06c29.26,0,56.58-5.33,79.63-25,24.86-21.17,39.34-47.72,39.56-80.55.42-63.92,2.91-128-.92-191.72-5.63-93.55-50.36-166.65-128.32-219a28.66,28.66,0,0,0-39.14,6.65c-9.12,11.95-7.37,29.06,4.19,39.56a81.2,81.2,0,0,0,7.54,5.54c62.43,44.35,96.62,104.35,98.13,181.31,1.11,56.95.46,113.95.34,170.92-.08,33.25-20.75,53.71-54.28,53.72q-258,.12-515.92,0c-19.46,0-38.91.21-58.37.08-33.16-.23-54-21.07-54-54.15-.06-54.55.13-109.09-.06-163.64-.08-22.31-18.5-36.56-38.15-30.09-11.7,3.85-20,13.92-20,26.42-.17,59.75-1.24,119.54.41,179.25,1.55,56.37,51.07,100.37,110.27,100.49C310.7,963.09,406.59,962.94,502.48,962.94Z" style="fill:url(#linear-gradient)"/><path d="M504.34,33c129.93-.13,235.53,105.67,235,235.42-.55,128.4-106,234.42-233.1,234.34-131.82-.09-236.41-103.83-236.47-234.55S373.63,33.13,504.34,33Zm-.08,58.46c-96.81-.26-176,77.7-176.41,173.69-.44,99.67,77,178.83,175.28,179.14,96.08.3,175.55-77.77,177.86-170.7C683.48,173.43,601.65,89.93,504.26,91.46Z" style="fill:#e4423b"/></svg>