<svg id="Layer_1" data-name="Layer 1" xmlns="http://www.w3.org/2000/svg" viewBox="0 0 1000 1000"><title>girl icon pink</title><circle cx="501.12" cy="314.18" r="296.94" style="fill:#ff7e65"/><path d="M500.37,528.41h-5.6c-14.84,0-29.4-2.34-43.79-5.77s-42.58-13.91-43-14.11a227.75,227.75,0,0,1-62.4-45.75,203.84,203.84,0,0,1-30.67-41.25A223.53,223.53,0,0,1,292,363a219.16,219.16,0,0,1-5.64-47.94,226.76,226.76,0,0,1,16.35-82.25,204.41,204.41,0,0,1,31.61-53.78,219.51,219.51,0,0,1,52.07-46,205.67,205.67,0,0,1,64.17-27.53,201.63,201.63,0,0,1,24.91-4.28c6.92-.75,13.86-1.29,20.81-1.35a242.7,242.7,0,0,1,45.48,4,216.45,216.45,0,0,1,42.58,12.26,197.65,197.65,0,0,1,63,40.82,230.36,230.36,0,0,1,50.84,71.67,202.24,202.24,0,0,1,17.13,98.71c-2.43,32.57-10.87,63.51-26.8,92.22a205.2,205.2,0,0,1-44,54.29,226.36,226.36,0,0,1-37,26.76,206,206,0,0,1-107.14,27.77Z" style="fill:#fefefe"/><rect x="286.05" y="732.73" width="423.38" height="95.67" rx="47.84" style="fill:#ff7e65"/><rect x="285.68" y="734.75" width="424.13" height="91.64" rx="45.82" transform="translate(1278.31 282.82) rotate(90)" style="fill:#ff7e65"/></svg>