<svg id="Layer_1" data-name="Layer 1" xmlns="http://www.w3.org/2000/svg" viewBox="0 0 1000 1000"><title>grad icon pink</title><path d="M849,688.83c-3.71-8.4-3.58-11.69,6-15.54,30.74-12.33,48.71-40.68,47.89-72.58-.81-31.33-19.59-57.83-49.94-69-5.62-2.08-5-5.35-5-9.27,0-44.06.12-88.12-.17-132.17,0-6.14,2.29-8.74,7.56-10.85,16.76-6.71,33.36-13.82,50-20.83,23.76-10,47.5-20.06,72.45-30.61-3.7-1.46-6-2.4-8.25-3.25Q738,238.62,506.45,152.4c-6.47-2.41-11.84-1.65-17.89.6Q342.82,207.3,197,261.37c-59,21.91-117.88,43.85-178.36,66.35,4.53,2.11,7.3,3.46,10.12,4.7,38.52,16.82,77,33.79,115.65,50.25,6,2.54,7.53,5.55,7.51,11.71-.23,72.81,0,145.61-.33,218.42,0,9.11,3,16,8.74,22.46a286.5,286.5,0,0,0,53,45.88c91.67,62.13,195,83.57,303.47,85,42.3.54,83.86-7.32,124.41-19.54,32.6-9.84,64.29-22,92.75-41.16,11.74-7.91,14.5-20.43,7.86-30.91-7-11-19.84-13.83-31.91-6.67A329.92,329.92,0,0,1,648,696.07c-107.11,36.49-213.75,30.6-319.6-5-47.48-16-90.61-40-126.39-75.94a18,18,0,0,1-5.68-13.94c.23-61.86.14-123.73.14-185.6v-8.78l9,3.75q142.52,59.89,285,119.92c5.69,2.41,10.25,2.25,15.83-.15q143.34-61.51,286.87-122.6c3.22-1.37,6.25-4.05,10.43-3,0,39.53-.1,78.9.12,118.26,0,5.22-1.56,7.2-6.56,9.13C767,543.72,750.72,566.51,749,598.29c-1.75,31.45,10.75,56.55,38.94,72.39,5.63,3.16,12,5,18.23,7.57-.41,1.16-.73,2.33-1.22,3.43q-30.76,68.12-61.54,136.21c-8.69,19.25-1,31,20.33,31.05q60.46.1,120.92,0c20.47,0,28.27-11.92,20.26-30.59C886.35,775.13,868,731.84,849,688.83Zm-47.6-338c-2.64,1.11-6.18.55-9.23.17q-93.37-11.66-186.73-23.46c-35.3-4.44-70.59-8.94-105.91-13.23-12.72-1.54-24.81,7.6-25.85,19-1.32,14.56,6.61,23.77,20.89,25.47,59.2,7,118.37,14.33,177.54,21.52q22.18,2.7,44.36,5.35l.54,2q-42.22,18.49-84.44,37-65.42,28.77-130.74,57.69c-5.24,2.34-9.59,2.48-15,.16q-172.42-74.19-345-148.06c-2-.84-3.88-1.83-7.08-3.35,24.92-9.49,48.72-18.57,72.53-27.63Q346.94,250.29,486.54,197a19.48,19.48,0,0,1,15-.2q171.95,64.13,344,127.89c2.26.84,4.5,1.77,8.15,3.22C835.55,335.94,818.57,343.59,801.41,350.8Zm21.3,285.47a34.16,34.16,0,1,1,.81-68.31c19.08.15,34.59,15.81,34.23,34.56A34.35,34.35,0,0,1,822.71,636.27Z" style="fill:#ff7e65"/><path d="M850.7,797.27H796.07c8.93-24.61,17.69-48.75,27.23-75.06C832.8,748.23,841.56,772.25,850.7,797.27Z" style="fill:#fefefe"/></svg>