<svg id="Layer_1" data-name="Layer 1" xmlns="http://www.w3.org/2000/svg" viewBox="0 0 1000 1000"><title>pin icon grey</title><path d="M198.34,197.35c-1,.86-2,1.68-2.94,2.6L14.06,381.3c-1.17,1.17-2.26,2.42-3.84,4.12,14.47,4.53,28.4,9,42.66,12.34,26.32,6.18,52.88,10.52,80,10.34a9.59,9.59,0,0,1,7.43,3.14Q273.76,544.8,407.41,678.17c3.14,3.14,3.06,6.19,2.49,9.7A316.42,316.42,0,0,0,406,742c.39,39.64,6.68,78.4,17.9,116.35,1.49.33,2.12-.77,2.88-1.52Q517.67,765.94,608.51,675c1.92-.49,3.18-1.91,4.5-3.23q13.32-13.29,26.6-26.62c1.44-1.44,3.09-2.79,3.28-5.06-.34-2.69-2.42-4.18-4.13-5.89Q422,417.47,205.25,200.78C203.44,199,202,195.79,198.34,197.35Z" style="fill:#707575"/><path d="M198.34,197.35c2.38.09,3.57,2,5,3.4q217.74,217.7,435.44,435.43c1.32,1.32,2.93,2.44,3.49,4.38a2.93,2.93,0,0,0,1.57.27c2.3-.64,3.71-2.46,5.29-4q12.17-12.1,24.25-24.27c1.54-1.55,3.57-2.84,3.8-5.35,1.47-1.7,2.85-3.49,4.43-5.07q87.61-87.68,175.29-175.3c1.45-1.45,3.08-2.73,5.3-4.68a373.44,373.44,0,0,0-37-9.53,403.23,403.23,0,0,0-94.93-8.84c-13.37.38-26.76,1.31-39.93,3.82-4.58.88-7.62-.29-10.91-3.58Q547.54,271.78,415.33,139.84a15.39,15.39,0,0,1-5-11.89c.12-41.48-11.78-88.74-22.64-119.36C385.47,9,384.44,11,383,12.35Q322.17,73.15,261.35,134q-29.43,29.4-58.92,58.74C201,194.18,199.7,195.8,198.34,197.35Z" style="fill:#a7a9aa"/><path d="M643.26,640.45a3.7,3.7,0,0,0-1,.1Q625.4,657.8,608.51,675c1.8,1.65,3.67,3.24,5.4,5Q745.7,811.77,877.45,943.6a25.41,25.41,0,0,0,10.31,6.52c29.86,9.81,59.67,19.77,89.51,29.63,1.9.63,3.78,1.89,5.94.85a.52.52,0,0,0,.26-.39c0-.17-.19-.32-.29-.47a47.3,47.3,0,0,0-6.17-7.31Q813.66,809.13,650.33,645.82C648.24,643.73,646.55,641,643.26,640.45Z" style="fill:#899596"/><path d="M643.26,640.45c1.54,1.66,3,3.36,4.63,4.95Q812.94,810.48,978,975.51c1.56,1.56,2.74,3.67,5.15,4.23-2.51-10.64-6.6-20.78-10-31.14-6.87-21.1-13.89-42.16-20.7-63.29a22.79,22.79,0,0,0-5.88-9.38Q814.19,743.63,681.83,611.24c-1.45-1.45-3.09-2.71-4.65-4.06Z" style="fill:#c6cbce"/></svg>