<svg id="Layer_1" data-name="Layer 1" xmlns="http://www.w3.org/2000/svg" xmlns:xlink="http://www.w3.org/1999/xlink" viewBox="0 0 1000 1000"><defs><linearGradient id="linear-gradient" x1="530.05" y1="956.75" x2="530.05" y2="43" gradientUnits="userSpaceOnUse"><stop offset="0" stop-color="#f36d20"/><stop offset="1" stop-color="#cd2d27"/></linearGradient><linearGradient id="linear-gradient-2" x1="554.48" y1="910.78" x2="554.48" y2="275.63" gradientUnits="userSpaceOnUse"><stop offset="0" stop-color="#fbaf17"/><stop offset="0.99" stop-color="#f15f23"/></linearGradient><linearGradient id="linear-gradient-3" x1="589.59" y1="869.35" x2="589.59" y2="367.7" gradientUnits="userSpaceOnUse"><stop offset="0" stop-color="#fffef5"/><stop offset="0.32" stop-color="#faef6c"/><stop offset="1" stop-color="#fede0f"/></linearGradient></defs><title>hot icon</title><path d="M299.56,332.74c-.84,82.35,9,155.47,78.69,211.82C360.17,444.81,351.66,350.25,383,257c31.72-94.38,95.57-161.29,183.75-214-4.62,17.15-9,29.47-11.17,42.16C545.38,144,564.84,194.82,605.08,235.8c30.18,30.74,65,57.42,99.81,83,143.88,105.64,195.41,278.8,128.24,435.5-61.75,144.08-215.36,226.43-366,196.22C315.21,920.06,203.63,786.91,198.26,632.48,194.73,531,212.81,436.68,278.7,355.84,284,349.36,289.92,343.38,299.56,332.74Zm62.24,440.1c48,69.49,161.87,99.23,253.63,67.48C716,805.53,783.06,707.5,777.9,602.89c-5-102.53-78.37-196.86-172-217.9C649,443.89,668.34,506.87,657,578.11,646.22,645.47,598.16,717,543.81,740.39c22.74-46.89,33-94,23-145.21C533,693.89,465.92,753.29,361.8,772.84Z" style="fill:url(#linear-gradient)"/><path d="M277,744.26c110.14,56.5,120.83-9.8,168.19-142.06,21.22,129,70.21-124.1,75.11-153.49,3.26,111,92.15,146.42,106.13,58.78,14.8-92.69-38.62-155.24-94.7-231.86C653.55,303,809.35,448.85,828.91,581c21,142-68.69,280.07-212.27,320C497.25,942.32,312.93,845.49,277,744.26Z" style="fill:url(#linear-gradient-2)"/><path d="M381.4,789.17c.75,1.09,16.75,0,18.6-.17,9-1,11.76-.94,18-2,14.58-2.48,17-3,34-7,26.84-6.32,57.53-22.27,78-37,38-27.38,70.51-75.69,70.94-123.44C601,613,601,603,601,598c2.51,6.27,5.41,12.53,7.26,19,2.28,7.92,4,16,6.31,23.89a101.58,101.58,0,0,0,5.61,15.21c2.07,4.36,4.5,9.48,8.42,12.4,11.45,8.52,18.32-.2,23.59-10.74,44.42-89,35.29-209.24-23.86-290,93.63,21,164.11,149,169.17,251.52C802.65,723.83,735.57,821.86,635,856.65,543.26,888.4,429.36,858.66,381.4,789.17Z" style="fill:url(#linear-gradient-3)"/></svg>