<svg id="Layer_1" data-name="Layer 1" xmlns="http://www.w3.org/2000/svg" xmlns:xlink="http://www.w3.org/1999/xlink" viewBox="0 0 1000 1000"><defs><linearGradient id="linear-gradient" x1="496.51" y1="37.24" x2="503.37" y2="950.01" gradientUnits="userSpaceOnUse"><stop offset="0" stop-color="#ffa368"/><stop offset="1" stop-color="#ff315a"/></linearGradient></defs><title>invite icon</title><path d="M266,531q-61.63-39.72-123.31-79.38c-2.28-1.46-2.37-3.23-2.37-5.43,0-14.45,0-28.9,0-43.35l0-229.21c0-1.84-.07-3.68-.11-5.53,2.78-11.18,9.7-16.48,21.74-16.49q67.61,0,135.22,0H839.88c13,0,19.78,5,22.7,16.47,0,13.23-.09,26.46-.09,39.69q0,117.92.14,235.84c0,4.48-1.54,6.73-5.26,8.95-9,5.4-17.69,11.37-26.5,17.11-3.94,5-9.83,7.29-15,10.57q-35.5,22.77-71.09,45.42c-32.15,20.47-64.17,41.14-96.39,61.48-.91.58-1.79,1.2-2.68,1.81-37.79,24.21-75.49,48.56-113.51,72.41-21.74,13.63-44,12.8-65.64-.93-23.88-15.15-47.5-30.71-71.52-45.64-15.47-9.49-30.54-19.59-45.76-29.46q-39.69-25.73-79.64-51C268.27,533.41,266.71,532.65,266,531Z" style="fill:#fefefe"/><path d="M438.47,88.61c7.68-6.09,15.42-12.11,23-18.3,22.2-18.05,57.57-18.05,79.81,0,7.61,6.18,15.34,12.21,23,18.3l30,24.65H408.52Z" style="fill:#fefefe"/><path d="M63.82,577V446.45c7,4.41,13.45,8.35,19.8,12.41C121.9,483.35,279.29,582.7,312.56,604.22c5.8,3.75,11.6,7.53,17.58,11,22.23,14.57,44.73,28.75,67.1,43.12q26,16.71,52.05,33.28a93.66,93.66,0,0,0,44.61,14.54c16.87,1.13,32.63-2.16,47.86-9,6.34-2.86,11.9-7,17.72-10.76q58.5-37.32,117-74.62c10.77-6.84,21.46-13.8,32.22-20.66,19.24-12.14,38.4-24.43,57.58-36.68q53.46-34.14,106.93-68.28c5.31-3.39,10.71-6.66,15.92-10.21a18.29,18.29,0,0,1,6.61-3.16L933,449.33c1.66-1,3.32-2.1,6-3.79v32.69c-.06,11.34-.19,22.68-.18,34q0,44.38.18,88.76c-.06,14.1-.18,28.2-.17,42.3q0,39.78.17,79.56c-.06,16.55-.17,33.11-.17,49.66,0,23.45.11,46.9.17,70.35-.06,8.61-.35,17.23-.13,25.83.58,23.54-8.24,42.09-28.47,54.76-10.85,6.29-22.71,7.89-35,7.88q-374.72-.06-749.43,0c-10.53,0-20.69-1.45-30.36-6.24-11.06-5.49-18.76-14.14-25.19-24.27A64.06,64.06,0,0,1,64,873.28q-.15-36-.2-71.94.09-44.36.18-88.72c0-7-.12-14.09-.18-21.14q.09-41.84.18-83.67C64,597.54,63.88,587.28,63.82,577Z" style="fill:#fefefe"/><path d="M900.74,424.82v-41.9c.34-.08.76-.28.85-.19,7.29,8.27,14.54,16.57,21.84,24.83,1.05,1.19,1.13,2.06-.27,2.95Z" style="fill:#fdfdfe"/><path d="M102.29,391.16c0,11.11,0,20.9,0,30.69,0,3.59-1.62,3.4-4,1.81-5.25-3.55-10.48-7.12-15.8-10.57-1.81-1.17-1.82-2.06-.3-3.45C88.64,403.78,95,397.86,102.29,391.16Z" style="fill:#fcfcfe"/><path d="M976.57,833.74h0c.06-1.83.18-3.67.18-5.51q0-61.66,0-123.33c0-5.36-.12-10.73-.18-16.09h0c.06-1.84.18-3.67.18-5.51q0-60.51,0-121c0-5.83-.12-11.65-.19-17.48h0c0-34.48-.33-105.5-.56-106.53h0a82.57,82.57,0,0,0-13.42-41.53C952,380.32,938.12,366.5,925.12,352q-9.75-11.07-19.5-22.14c-3.86-4.4-5.36-9.29-5.26-15.38.4-24.23.2-48.48.17-72.71,0-10.43-.13-20.85-.21-31.28h0c.3-15.37.43-30.75-.09-46.12a21.47,21.47,0,0,0-.48-3.65c-5.87-28.72-28.39-47-58.19-47.09-55.07-.08-110.15-.52-165.21.31-14.75.22-25.72-3.71-37.14-13.27-5.1-4.27-10.8-7.31-18.73-14.7-6.88-5.54-13.81-11-20.64-16.64C588.72,60.24,577.73,51,566.57,41.9c-38.45-31.24-92-31.16-130.51.09-9.18,7.44-18.55,14.65-27.73,22.1-8.77,7.12-17.41,14.4-26.11,21.61-10.34,8.23-20.75,16.37-31,24.76a13.32,13.32,0,0,1-9.14,3.25q-90.45-.15-180.89,0c-28.19,0-50.47,16.87-57.3,43-2.49,9.53-1.64,19.23-1.47,28.89h0c-.08,1.84-.22,3.67-.22,5.5q0,40,0,80.06c0,12.42.13,24.84.2,37.25h0c-.07,9.08-.23,18.15-.15,27.22a7.73,7.73,0,0,1-2.69,6.43q-13.06,11.7-25.88,23.67c-10.41,9.79-21.66,18.76-30.07,30.51-6.74,9.4-11.85,19.55-14.19,31h0a40,40,0,0,0-2.69,15.69h0a14.84,14.84,0,0,0-.66,3.09q0,37.41.08,74.82h0q-.09,41.63-.17,83.25c0,15.94.11,31.88.17,47.82q-.09,40.95-.17,81.88c0,16.71.11,33.42.17,50.14,0,32.05-.22,64.1,0,96.15a65.16,65.16,0,0,0,4.51,22.89c4.08,14.75,12.19,27.16,22.79,37.89,19.51,19.77,43.5,28.51,71.11,28.5q373.09-.09,746.2,0c7.07,0,14.15.13,21.19-.74,29.5-3.65,52.52-17.78,69-42.59h0c7.47-10.09,11.64-21.64,13.89-33.79C978.47,872.83,976.36,853.24,976.57,833.74ZM442.5,87.17q4.28-3.12,8.26-6.64c13.82-12.25,28.62-22.14,48.15-22.47,14.29-.24,27.42,2.92,39,11.32,6.84,5,13.29,10.44,19.84,15.78,1.88,1.53,8.65,7.11,10.24,8.42,7.42,6.14,15.1,12,22.83,18.66h-179c7.85-6.6,15.44-12.53,22.9-18.62C436.37,92.29,441.4,88,442.5,87.17ZM163,152.92c1.54,0,3.08,0,4.62,0H835.11c1.69,0,3.38,0,5.08,0,11.41.27,17.14,4.44,21,15.24.19.42-.2,6.21-.2,8.65q-.09,130.6-.05,261.22c0,1.85-.09,3.7,0,5.54.21,3.65-1.45,6-4.52,7.87q-11,6.74-21.76,13.94c-1.65,1.1-84.43,55.5-123.14,80.24Q678.4,566.77,645.37,588h0c-.8.46-1.62.88-2.39,1.37q-55.72,35.58-111.46,71.17c-15.61,9.92-32.32,11.58-49.9,6.08-9.28-2.9-16.79-8.87-24.82-13.92-20.53-12.92-41-26-61.43-39h0c-10-6.32-20.16-12.39-30-19-23.47-15.88-47.58-30.77-71.39-46.12-9.16-5.9-29.85-20.15-31.32-21.14q-12.62-8.53-25.4-16.79-44.81-28.87-89.8-57.45c-4.35-2.76-5.82-5.86-5.81-10.87.16-48.46.1-96.93.1-145.39q0-60.7,0-121.39c0-2-.27-7.16,0-7.67C145.91,157,151.38,153.15,163,152.92ZM860.09,930.07q-360.62-.08-721.23,0c-7.84,0-15.67.11-23.49-.84-14.17-1.71-26.1-7.58-35.7-18.23-2.15-2.38-3.8-5.17-5.9-7.61a58.76,58.76,0,0,1-4-7,87.44,87.44,0,0,1-4.56-29.43c.18-19.5.08-39,0-58.52,0-2.35.08-11,.08-12.81q0-49,0-98c0-2.1,0-10.72,0-13q0-50.35,0-100.73c0-2.28,0-10.84,0-12.89q.08-31.3,0-62.61c0-2.1-.34-9.51-.32-11.3.09-13.7,0-27.39.09-41.08,0-2.06-1.14-5,.85-6s3.8,1.45,5.56,2.58C112.34,478.82,262.69,573.58,292,592.28c12.43,7.93,24.93,15.75,37.39,23.62,1.23.91,2.41,1.88,3.69,2.7C370.18,642.38,407.43,666,444.43,690c15.82,10.26,32.61,16.69,51.6,17.53,19.15.84,37.09-3.24,53.2-13.31,34.27-21.4,68.18-43.39,102.21-65.18q28.9-18.51,57.72-37.13c1.07-.59,2.17-1.11,3.2-1.76Q782.23,545.57,852.08,501c14.2-9.07,71-43.76,81.8-50.76,3.36-2.17,3.8-1.95,3.84,2,.09,7.06-.22,30.69-.22,33q-.06,54.56,0,109.1c0,2.28,0,11.37,0,13.7q-.06,54,0,108c0,2.29,0,11.19,0,13.4q-.06,53.49,0,107c0,2.14.25,10.25.24,12.14-.06,7.51.06,15,0,22.55-.27,20.25-7.52,37-24.45,49a44.61,44.61,0,0,1-4,2.75C893.67,930.59,876.88,930.07,860.09,930.07Z" style="fill:url(#linear-gradient)"/><path d="M373.58,436.8c36.12-.14,72.25-.09,108.38-.1h0l.27,14.88c-.05,6.14-.15,12.29-.15,18.43q0,38.26,0,76.53c0,2.22-.65,4.7,3.17,4.64,10.75-.15,21.51-.1,32.27,0,2.4,0,3.22-.87,3.21-3.24q-.15-48.18-.18-96.35h0l.27-14.88h0c36.13,0,72.26,0,108.38.1,3.92,0,5.39-.78,5.24-5-.34-9.21-.31-18.45,0-27.66.15-4.22-1.06-5.4-5.33-5.38-34.29.18-68.57,0-102.85.2-4.35,0-5.71-.95-5.68-5.52.21-34.28.14-68.57.11-102.85,0-1.77.65-3.71-.77-5.3h0c-1.45-1.26-3.2-.71-4.82-.72q-13.49-.09-27,0c-1.76,0-3.67-.6-5.28.72h0c-1.42,1.59-.76,3.53-.77,5.3,0,34.28-.1,68.57.12,102.85,0,4.57-1.33,5.54-5.68,5.52-34.44-.18-68.88,0-103.32-.18-3.86,0-5,1.07-4.86,4.9.27,9.37.33,18.76,0,28.12C368.19,436,369.66,436.82,373.58,436.8Z" style="fill:#ff325a"/></svg>