<svg id="Layer_1" data-name="Layer 1" xmlns="http://www.w3.org/2000/svg" viewBox="0 0 1000 1000"><title>leaderboard icon</title><polygon points="568.24 548.95 386.06 993.7 305.68 806.15 123.5 886.53 305.68 447.14 568.24 548.95" style="fill:#ee5241"/><polygon points="693.47 442.04 877.83 885.89 688.6 809.55 616.07 995 435.49 554.95 693.47 442.04" style="fill:#e4423b"/><path d="M479,24.77c12.06-16.37,31.8-16.37,43.87,0a37.68,37.68,0,0,0,52,8.23c16.53-11.84,35.31-5.74,41.72,13.56a37.69,37.69,0,0,0,46.9,23.9C682.88,64.3,698.85,75.9,699,96.24a37.69,37.69,0,0,0,37.22,37.22c20.34.14,31.94,16.11,25.79,35.49a37.69,37.69,0,0,0,23.9,46.91c19.3,6.41,25.4,25.18,13.55,41.72a37.68,37.68,0,0,0,8.24,52c16.37,12.06,16.37,31.8,0,43.87a37.68,37.68,0,0,0-8.24,52c11.85,16.53,5.75,35.3-13.55,41.72a37.68,37.68,0,0,0-23.9,46.9c6.15,19.38-5.45,35.35-25.79,35.49A37.7,37.7,0,0,0,699,566.76c-.13,20.34-16.1,31.94-35.49,25.79a37.68,37.68,0,0,0-46.9,23.9c-6.41,19.29-25.19,25.39-41.72,13.55a37.68,37.68,0,0,0-52,8.24c-12.07,16.37-31.81,16.37-43.87,0A37.68,37.68,0,0,0,427,630c-16.54,11.84-35.31,5.74-41.72-13.55a37.69,37.69,0,0,0-46.91-23.9C319,598.7,303,587.1,302.9,566.76a37.69,37.69,0,0,0-37.22-37.22c-20.33-.14-31.94-16.11-25.78-35.49a37.69,37.69,0,0,0-23.9-46.9c-19.3-6.42-25.4-25.19-13.56-41.72a37.68,37.68,0,0,0-8.23-52c-16.37-12.07-16.37-31.81,0-43.87a37.68,37.68,0,0,0,8.23-52C190.6,241,196.7,222.27,216,215.86A37.7,37.7,0,0,0,239.9,169c-6.16-19.38,5.45-35.35,25.78-35.49A37.67,37.67,0,0,0,302.9,96.24C303,75.9,319,64.3,338.39,70.46a37.7,37.7,0,0,0,46.91-23.9C391.71,27.26,410.48,21.16,427,33A37.68,37.68,0,0,0,479,24.77Z" style="fill:#f36946"/></svg>