<svg id="Layer_1" data-name="Layer 1" xmlns="http://www.w3.org/2000/svg" viewBox="0 0 1000 1000"><title>topics icon</title><polygon points="863 825.39 830.96 603.38 810.65 616 836.82 823.52 863 825.39" style="fill:#f7f6f6"/><rect x="388.11" y="217.77" width="20.57" height="28.04" transform="translate(796.79 463.58) rotate(-180)" style="fill:#e7e6e6"/><path d="M530.28,167.28a17.42,17.42,0,0,0-3.27-7c-1.52-1.79-3.54-3.11-5-4.9S519.85,151.2,519,149a59,59,0,0,0-3-6.5l-2.61,2.35-18.7,7.47,16.83,29.92,11.58-6.95c2-1.19,4.51-2.24,6.25-3.75C530.43,170.6,530.6,169,530.28,167.28Z" style="fill:#f4f3f3"/><path d="M451.85,58.48c.93-.64-7.58-12.25-8.49-13.34a64.46,64.46,0,0,0-11.69-10.87c-12.12-8.79-28.41-14.15-43.32-10.64-9.67,2.27-17.93,8.06-25.9,13.71-8.4,5.95-17.16,11.3-25.62,17.16-14.94,10.35-29.62,21.1-44.44,31.63Q281.29,94,270,101.7c-31.93,21.56-62.45,45.34-95.1,65.71-31.85,19.87-36,58.58-14.74,85.48,1.71,2.17,3.47,4.31,5.21,6.47,10.68-10.46,23.8-17.57,35.92-26q88.74-62,177.44-124Q415.27,83.87,451.85,58.48Z" style="fill:#e64a4a"/><path d="M877.83,980.44a6.5,6.5,0,0,0,.89-2.58,40,40,0,0,0,.67-13.89c-1.62-16.54-4-33-6-49.55q-3-25.41-6-50.83-2.22-19.2-4.38-38.4c-.66-5.86-3-6.63-7.75-5.34-2.38.64-4.85,1-7.27,1.45-8.78,3-17.63,5.71-26.33,8.88-21.07,7.7-39.59,19.93-57.74,32.8-11,10.14-22,20.31-31.82,31.6l-7.51,9.34c17.41,11.79,36.76,20,55.22,29.89,14.73,7.87,29.39,15.91,44.36,23.28,14.26,7,28,15.25,42.44,21.89a22.55,22.55,0,0,0,5.83,1.68c1.47.24,3.79.67,5.16-.09A.7.7,0,0,0,877.83,980.44Z" style="fill:#2d2d2d"/><path d="M451.85,58.48q-36.56,25.43-73.11,50.87-88.74,62-177.44,124c-12.12,8.47-25.24,15.58-35.92,26l41.49,61c3.26-.41,5.43-2.77,7.95-4.5q35.15-24.1,70.27-48.24c17.78-14.36,37.83-25.48,56.13-39.1,1.42-1.18,2.76-2.47,4.26-3.52q70.51-49.11,141-98.23c3.16-2.21,7.6-3.33,8.43-8.07Z" style="fill:#e04444"/><path d="M241.79,371.18c25.11,36,49.55,72.48,75.55,107.82,19.18,26.07,35.82,53.88,55.67,79.44-.77-12.73-7.55-23.35-12.27-34.67q-33.21-79.65-66.57-159.24c-5.44-13-4.9-15.34,6.94-23.31,2.82-1.9,5.65-3.77,8.48-5.66,5.34-4.15,9.9-9.46,16.83-11.22,4.58-5.68,11.89-7.8,16.92-12.67,5.19-5,7.73-3.63,11.39,1.7,17.15,25,34.67,49.72,52.06,74.55L513.35,541.23c3.3,4.68,6.17,9.76,10,13.92,3.34,3.6,4.38,9.69,10.53,10.46.63-4.52-1.11-8.59-2.59-12.64q-21.14-58.08-42.41-116.11-30.42-82.91-61-165.74c-5.6-15.13-5.38-16.2,9-24.5.54-.31,1.12-.54,1.68-.8l16.86-13.09a16.68,16.68,0,0,0-2.07-9.78l-51.94,35c-41.55,29.06-83.17,58-124.59,87.26C265,353.63,252.17,360.79,241.79,371.18Z" style="fill:#df9115"/><path d="M406.79,387.92c-17.39-24.83-34.91-49.57-52.06-74.55-3.66-5.33-6.2-6.73-11.39-1.7-5,4.87-12.34,7-16.92,12.67-.32,9.12,4.42,16.74,7.74,24.65,27.11,64.68,54.51,129.23,81.69,193.88Q449,621.82,481.78,700.94c2.34,5.67,6.94,11.43,3.33,18.39l60,85.57a13.51,13.51,0,0,1,6.76-4.18l17.53-13.57c-3.49-1.56-4.4-4.83-5.73-8q-17.62-42.52-35.52-84.93-29-69-58-138-23.08-54.86-46.2-109.69c-7.08-16.86-14-33.77-21-50.69C401.37,391.91,399.46,387.61,406.79,387.92Z" style="fill:#e89a1e"/><path d="M241.79,371.18c10.38-10.39,23.19-17.55,35.06-25.93,41.42-29.25,83-58.2,124.59-87.26a19.75,19.75,0,0,0-1.3-4.41c-11.05-19.34-11.23-19.55,6.36-32.42,13.4-9.81,26.86-19.61,41.43-27.7a21.77,21.77,0,0,1,3.09-3.32q25.55-18,51.17-35.81c17.38-9.87,17.42-9.9,5.35-25.69-3.33-4.36-4.74-11.32-12.62-10-.83,4.74-5.27,5.86-8.43,8.07q-70.44,49.2-141,98.23c-1.5,1-2.84,2.34-4.26,3.52-.08,13.69-1.34,27.15-9.25,38.93-13.39,20-35.05,29.34-54.17,42-3.31,5.22-9.17,7.29-13.83,10.73-13.68,10.07-27.11,20.58-42.22,28.55C227,357.47,229.4,368.75,241.79,371.18Z" style="fill:#e7e6e6"/><path d="M485.11,719.33c3.61-7-1-12.72-3.33-18.39q-32.65-79.17-65.93-158.07c-27.18-64.65-54.58-129.2-81.69-193.88-3.32-7.91-8.06-15.53-7.74-24.65-6.93,1.76-11.49,7.07-16.83,11.22-.6,9.85,4.83,17.75,8.4,26.27q50.16,119.81,100.1,239.68c5.78,13.93,14,27.13,14.79,42.83Q457.81,682.65,485.11,719.33Z" style="fill:#e5961b"/><path d="M432.88,644.34c-.79-15.7-9-28.9-14.79-42.83q-49.72-120-100.1-239.68c-3.57-8.52-9-16.42-8.4-26.27-2.83,1.89-5.66,3.76-8.48,5.66-11.84,8-12.38,10.35-6.94,23.31q33.39,79.58,66.57,159.24c4.72,11.32,11.5,21.94,12.27,34.67Q401.81,602.18,432.88,644.34Z" style="fill:#e29418"/><path d="M221.75,348.65c15.11-8,28.54-18.48,42.22-28.55,4.66-3.44,10.52-5.51,13.83-10.73-.48-3.84,1.23-7.27,2-10.89,2.09-10.24,6.36-20.13,5.32-30.9Q250,291.7,214.82,315.82c-2.52,1.73-4.69,4.09-7.95,4.5C206.87,332.37,214.6,340.36,221.75,348.65Z" style="fill:#f7f6f6"/><path d="M551.89,800.71a13.6,13.6,0,0,0-6.76,4.19,54.14,54.14,0,0,0,19.49,17q76.9,40.11,153.94,80a41.23,41.23,0,0,0,6.09,2.09l7.51-9.34c-.19.24-5.4-2.19-5.95-2.42a178.94,178.94,0,0,1-21.45-10.29c-5.09-3-10-6.3-15.21-9-2.53-1.28-5.27-2.1-7.75-3.42q-4.37-2.32-8.75-4.63-11.17-5.82-22.38-11.58c-14.94-7.68-29.9-15.33-44.79-23.12s-29.71-15.71-44.35-24Q556.7,803.48,551.89,800.71Z" style="fill:#ccc"/><path d="M764,863c18.15-12.87,36.67-25.1,57.74-32.8,8.7-3.17,17.55-5.93,26.33-8.88,0-23.06.3-46.11-.1-69.16s-3.84-45.56-6.84-68.24c-1.75-13.18-3.45-26.4-4.13-39.66a163.29,163.29,0,0,0-6.16-38.4l-14.3,9c-5.27,5.42-11.68,9.18-18.28,12.66l-17.52,12.4c-3.36,3.16-6.64,6.42-11.21,7.84l-9,6.29a5.87,5.87,0,0,1-.27,1.31A50.34,50.34,0,0,1,762.1,670Q762,760.15,762,850.27C762,854.6,761.53,859,764,863Z" style="fill:#fafafa"/><path d="M816.52,614.87l14.3-9a4.9,4.9,0,0,0-.71-4.38q-33.83-48-67.59-96c-6.53-.33-9.36-5.77-12.78-9.9-8.68-10.48-16.73-21.5-25.3-32.09-32.53-40.21-65.26-80.26-97.73-120.52-32.67-40.49-65.3-81-97.52-121.86-6.42-8.14-15-15-17.68-25.8-7,2.45-11.49,9.06-18.66,11.22,0,.62-.05,1.23-.05,1.85,5.33,8,11.58,15.28,17.61,22.76,28.76,35.64,56.93,71.76,85.62,107.46,32.39,40.29,65.2,80.24,97.65,120.48q52.74,65.42,105,131.2C804.92,598.21,813,604.92,816.52,614.87Z" style="fill:#f2a327"/><path d="M511.51,195.34c2.68,10.78,11.26,17.66,17.68,25.8C561.41,262,594,302.51,626.71,343c32.47,40.26,65.2,80.31,97.73,120.52,8.57,10.59,16.62,21.61,25.3,32.09,3.42,4.13,6.25,9.57,12.78,9.9-20.07-29.16-40-58.39-60.24-87.45Q621.1,301.36,539.73,184.78c-1.58-2.28-3.42-4.37-5.14-6.54Z" style="fill:#f5a72c"/><path d="M502.19,154.33q-25.6,17.88-51.17,35.81a21.23,21.23,0,0,0-3.08,3.32c1.48,9.27,9.15,14.95,13.19,22.75l29.72-19.33q13.36-10,26.74-20.06C508,172.36,502.8,164.92,502.19,154.33Z" style="fill:#fafafa"/><path d="M517.59,176.82q-13.38,10-26.74,20.06c.67,3.23,1.33,6.46,2,9.68,7.17-2.16,11.66-8.77,18.66-11.22l23.08-17.1c-.35-.56-.71-1.11-1.06-1.66l-1.43-1.87c-1.23-3.33-2.76-5.61-6.67-2.75C523,173.77,520.21,175.21,517.59,176.82Z" style="fill:#ed9e22"/><path d="M532.1,174.71l1.43,1.87Z" style="fill:#f5a72c"/><path d="M764,863c-2.45-4-1.94-8.38-1.94-12.71q0-90.12.06-180.23a50.34,50.34,0,0,0-1.9-14.68L742,666.84a294.82,294.82,0,0,1-32.19,22.37,133.06,133.06,0,0,1-20.74,14.48l-5.76,5.19a52.46,52.46,0,0,1,2.14,16.46q-.16,59.11,0,118.24c0,10.77-2.34,22.18,7.34,30.67,12.08,8.82,25.61,14.83,39.41,20.33C742,883.29,753,873.12,764,863Z" style="fill:#f7f6f6"/><path d="M285.09,267.58c1,10.77-3.23,20.66-5.32,30.9-.74,3.62-2.45,7-2,10.89,19.12-12.62,40.78-22,54.17-42,7.91-11.78,9.17-25.24,9.25-38.93C322.92,242.1,302.87,253.22,285.09,267.58Z" style="fill:#f4f3f3"/><path d="M406.79,387.92c-7.33-.31-5.42,4-3.82,7.89,6.94,16.92,13.89,33.83,21,50.69q23,54.87,46.2,109.69,29,69,58,138,17.83,42.44,35.52,84.93c1.33,3.21,2.24,6.48,5.73,8L601.22,765q-19.28-45.78-38.55-91.57-26-62.11-51.81-124.31c-1.32-3.18-2.95-6.71,2.48-7.89Z" style="fill:#ed9e22"/><path d="M769.51,647.76c4.57-1.42,7.85-4.68,11.21-7.84.43-3.48-1.69-5.64-3.71-8.12q-32.52-40-64.8-80.13c-29.24-36.44-58.29-73-87.56-109.46-26.75-33.29-53.75-66.38-80.52-99.65-21.92-27.24-44-54.4-65.31-82.08-6.89-8.94-16.37-16.21-19.66-27.75h-3.71l-16.86,13.09c0,5.75,2.59,10.86,4.48,16.06,13.16,36.14,26.55,72.2,39.86,108.29,12.24,33.17,24.55,66.32,36.7,99.53q26.05,71.24,51.92,142.53c1.35,3.73,3.39,7.58-.22,11.25l31.81,46.73c6.16-1.57,3.36-5.52,2.19-8.8-7.81-21.91-15.63-43.81-23.62-65.65Q552.12,515,522.37,434.22c-14.37-39-28.91-77.92-43.28-116.91-3.77-10.22-7.21-20.57-11.44-32.72,11.19,4.51,14.13,14.21,21.42,19.18,1.83-6.42,4.48-2.06,6.2-.19,4.2,4.56,8.1,9.4,12,14.23q32.85,40.94,65.66,81.93,39.92,49.59,80,99.09c32.42,40.3,65,80.51,97,121.16C756.8,628.86,766.18,636.23,769.51,647.76Z" style="fill:#e5961b"/><path d="M603.14,670.21l-31.81-46.73c-9.33-13.05-18.9-25.94-27.88-39.23-3.88-5.75-9.65-10.76-9.54-18.64-6.15-.77-7.19-6.86-10.53-10.46-3.86-4.16-6.73-9.24-10-13.92-5.44,1.18-3.81,4.71-2.49,7.89q25.86,62.19,51.81,124.31,19.17,45.83,38.55,91.57l47-32.94c-3.34-1.45-4.89-4.49-6.85-7.3C628.74,706.52,615.91,688.38,603.14,670.21Z" style="fill:#f2a327"/><path d="M533.91,565.61c-.11,7.88,5.66,12.89,9.54,18.64,9,13.29,18.55,26.18,27.88,39.23,3.61-3.67,1.57-7.52.22-11.25Q545.63,541,519.63,469.7c-12.15-33.21-24.46-66.36-36.7-99.53-13.31-36.09-26.7-72.15-39.86-108.29-1.89-5.2-4.46-10.31-4.48-16.06-.56.26-1.14.49-1.68.8-14.36,8.3-14.58,9.37-9,24.5q30.61,82.83,61,165.74,21.3,58,42.41,116.11C532.8,557,534.54,561.09,533.91,565.61Z" style="fill:#e29418"/><path d="M461.13,216.21c-4-7.8-11.71-13.48-13.19-22.75-14.58,8.09-28,17.89-41.44,27.7-16.52,13.44-16.52,15.31-14.65,34-1.87,9.35-.42,7.87,0,9.35,17.32-11.68,44.21-29.88,61.53-41.56Z" style="fill:#f4f3f3"/><path d="M461.13,216.21,453.38,223a16.68,16.68,0,0,1,2.07,9.78h3.71a33.4,33.4,0,0,1,14.95-11.22c5.59-5.28,11.54-10,18.69-13.1,0-.62,0-1.23.05-1.85-.67-3.22-1.33-6.45-2-9.68Z" style="fill:#e29418"/><path d="M648.27,732.06l-47,32.94-31.8,22.15-17.53,13.57c42.72,24.62,87.07,46.15,130.66,69.12,3.26,1.73,6.79,2.95,10.2,4.41-9.68-8.49-7.32-19.9-7.34-30.67q-.1-59.12,0-118.24a52.46,52.46,0,0,0-2.14-16.46l-22,14.11C657.73,727.14,652.84,729.37,648.27,732.06Z" style="fill:#f4f3f3"/><path d="M492.8,208.41c-7.15,3.05-13.1,7.82-18.69,13.1,7.68,14,18.89,25.22,28.78,37.51,34.31,42.67,68.27,85.62,102.55,128.31,31.77,39.57,63.88,78.86,95.64,118.43q48.76,60.74,97.16,121.76c6.6-3.48,13-7.24,18.28-12.66-3.5-9.94-11.6-16.65-17.84-24.55q-52.09-65.92-105-131.2c-32.45-40.24-65.26-80.19-97.65-120.48-28.69-35.7-56.86-71.82-85.62-107.46C504.38,223.69,498.13,216.41,492.8,208.41Z" style="fill:#ed9e22"/><path d="M798.24,627.52q-48.57-60.88-97.16-121.76c-31.76-39.57-63.87-78.86-95.64-118.43C571.16,344.64,537.2,301.69,502.89,259c-9.89-12.29-21.1-23.54-28.78-37.51a33.4,33.4,0,0,0-14.95,11.22c3.29,11.54,12.77,18.81,19.66,27.75,21.35,27.68,43.39,54.84,65.31,82.08,26.77,33.27,53.77,66.36,80.52,99.65,29.27,36.42,58.32,73,87.56,109.46q32.24,40.19,64.8,80.13c2,2.48,4.14,4.64,3.71,8.12Z" style="fill:#e89a1e"/><path d="M769.51,647.76c-3.33-11.53-12.71-18.9-19.69-27.77-32-40.65-64.54-80.86-97-121.16q-39.9-49.6-80-99.09-32.91-40.9-65.66-81.93c-3.88-4.83-7.78-9.67-12-14.23-1.72-1.87-4.37-6.23-6.2.19-.35,4.61,4.28,5.67,6.27,8.65,15.21,22.77,30.69,45.36,46.08,68l33.69,48.62c6.06-.76,9,3.9,12,7.56q36.74,44.88,73.08,90.08c27.55,34.2,55.19,68.33,82.34,102.85,6.22,7.92,14.3,14.63,17.9,24.51Z" style="fill:#e29418"/><path d="M760.47,654.05c-3.6-9.88-11.68-16.59-17.9-24.51-27.15-34.52-54.79-68.65-82.34-102.85q-36.4-45.15-73.08-90.08c-3-3.66-6-8.32-12-7.56,4.14,5.71,8.49,11.29,12.39,17.17,9.48,14.27,20.91,27.23,28.73,42.62a21.47,21.47,0,0,1,3.33,3.11c11.6,16.76,23.38,33.41,34.54,50.46,4.47,6.84,12,12,12.64,21.11,3.45.16,4.41,3.24,6,5.4,9,12.62,17.75,25.43,26.78,38,14.24,19.91,27.16,40.76,42.52,59.88l18.21-11.48A5.87,5.87,0,0,0,760.47,654.05Z" style="fill:#df9115"/><path d="M616.23,488.84c-7.82-15.39-19.25-28.35-28.73-42.62-3.9-5.88-8.25-11.46-12.39-17.17l-33.69-48.62c-5.3,1-3.93,4.93-3.19,8.05a112,112,0,0,0,4.11,12.37q35.56,96.5,71.17,193Q637.36,658.42,661.27,723l22-14.11,5.76-5.19c-6.42-25.6-17.34-49.62-26.13-74.38-15.43-43.49-31.47-86.76-47.24-130.12C614.41,495.67,612.93,492.13,616.23,488.84Z" style="fill:#ed9e22"/><path d="M616.23,488.84c-3.3,3.29-1.82,6.83-.54,10.35,15.77,43.36,31.81,86.63,47.24,130.12,8.79,24.76,19.71,48.78,26.13,74.38a133.06,133.06,0,0,0,20.74-14.48,41,41,0,0,0-1.27-6.31c-9.54-26.06-19.49-52-28.63-78.18-4.74-13.6-12.07-26.42-13.16-41.2-.65-9.15-8.17-14.27-12.64-21.11-11.16-17-22.94-33.7-34.54-50.46A21.47,21.47,0,0,0,616.23,488.84Z" style="fill:#f2a327"/><path d="M666.74,563.52c1.09,14.78,8.42,27.6,13.16,41.2,9.14,26.2,19.09,52.12,28.63,78.18a41,41,0,0,1,1.27,6.31A294.82,294.82,0,0,0,742,666.84c-15.36-19.12-28.28-40-42.52-59.88-9-12.61-17.77-25.42-26.78-38C671.15,566.76,670.19,563.68,666.74,563.52Z" style="fill:#f5a72c"/><path d="M661.27,723q-23.88-64.59-47.76-129.18-35.61-96.46-71.17-193a112,112,0,0,1-4.11-12.37c-.74-3.12-2.11-7.07,3.19-8.05-15.39-22.65-30.87-45.24-46.08-68-2-3-6.62-4-6.27-8.65-7.29-5-10.23-14.67-21.42-19.18,4.23,12.15,7.67,22.5,11.44,32.72,14.37,39,28.91,77.92,43.28,116.91Q552.12,515,581.71,595.76c8,21.84,15.81,43.74,23.62,65.65,1.17,3.28,4,7.23-2.19,8.8,12.77,18.17,25.6,36.31,38.28,54.55,2,2.81,3.51,5.85,6.85,7.3C652.84,729.37,657.73,727.14,661.27,723Z" style="fill:#e89a1e"/></svg>