<svg id="Layer_1" data-name="Layer 1" xmlns="http://www.w3.org/2000/svg" viewBox="0 0 1000 1000"><title>new icon copy 2</title><path d="M870.5,499.5c-390.83,37.92-332.58,69.16-370.5,460-37.92-390.83,17.33-422.07-373.5-460,390.83-37.92,335.58-68.16,373.5-459C537.92,431.34,479.67,461.58,870.5,499.5Z" style="fill:#f9d82b"/><path d="M523,353c1.17.15,8.06,25,5.31,17,25,73.21,76,91.51,145.45,108.64-44.86,3.63-110.24-15.16-134.38-55.34C535.34,416.59,520.6,352.72,523,353Z" style="fill:#fa841e;opacity:0.15"/><path d="M852.51,498.82c-5.93,1.11-71.38,9.91-80.59,9.75-16.81-.29-62,1.33-72-.06S837.39,495.89,852.51,498.82Z" style="fill:#fa841e;opacity:0.15"/><path d="M818.38,496.81c-6,.08-72-2.28-81.07-4-16.53-3.13-61.34-9.15-71-12.22S804,491.36,818.38,496.81Z" style="fill:#fff;opacity:0.45"/><path d="M343,479.24c-5.85,1.46-70.65,14.18-79.85,14.57-16.8.72-61.81,5.05-71.91,4.26S327.76,477.22,343,479.24Z" style="fill:#fff;opacity:0.45"/><path d="M481.18,678.4c1.34,5.88,12.82,70.91,13,80.12.4,16.81,3.87,61.89,2.89,72S478.87,693.62,481.18,678.4Z" style="fill:#fff;opacity:0.45"/><path d="M509.41,187c1,5.95,8.87,71.52,8.58,80.72-.54,16.81.43,62-1.1,72S506.26,202.1,509.41,187Z" style="fill:#fff;opacity:0.45"/><path d="M500,941.18c-.42-6-1.65-72-.43-81.17,2.22-16.67,5.79-61.74,8.32-71.55S504.62,926.5,500,941.18Z" style="fill:#fa841e;opacity:0.15"/><path d="M496.42,233.24c-.68-6-4.89-71.9-4.09-81.07,1.47-16.75,3-61.94,5.1-71.85S500.41,218.37,496.42,233.24Z" style="fill:#fa841e;opacity:0.15"/><path d="M144.4,498.82c5.93,1.11,71.38,9.91,80.59,9.75,16.81-.29,62,1.33,72-.06S159.52,495.89,144.4,498.82Z" style="fill:#fa841e;opacity:0.15"/><path d="M499.6,344.43c1.37.17,3.52,11.32,3.51,11.29,7.9,27.16,18.23,51.91,36.14,74.21,37.62,46.82,93.39,56.42,148.42,69.9-47.61,3.76-117.15-14-152.28-47.71-17.58-16.85-25.17-39-29.85-62.44C504.75,385.73,498.88,344.34,499.6,344.43Z" style="fill:#fff9d9;opacity:0.4"/><path d="M502.48,650.58c-1.37-.09-4.17-11.1-4.16-11.06-9.45-26.67-21.18-50.78-40.35-72-40.24-44.59-96.48-51-152.19-61.25,47.31-6.49,117.76,7.25,154.77,38.87,18.52,15.81,27.37,37.48,33.4,60.61C495,609.65,503.2,650.63,502.48,650.58Z" style="fill:#fff9d9;opacity:0.4"/><path d="M479.35,353c-1.17.15-8.07,25-5.32,17-25,73.21-76,91.51-145.44,108.64,44.86,3.63,110.24-15.16,134.38-55.34C467,416.59,481.75,352.72,479.35,353Z" style="fill:#fa841e;opacity:0.15"/><path d="M625.65,534.78c0,1.18-23.9,11-16.24,7.31C539.69,575.54,527.63,628.61,519,699.5c-9-44.1,1.85-111.26,38.84-140C564,554.64,625.66,532.36,625.65,534.78Z" style="fill:#fa841e;opacity:0.15"/><path d="M371.36,534.78c0,4.25,33.42,15.55,37.23,18,54.57,34.36,62.18,87.24,69.46,146.77,8.17-40.19-.39-105.25-31.45-134.64C440,558.63,371.34,530.93,371.36,534.78Z" style="fill:#fa841e;opacity:0.15"/><path d="M826,704.84c-93.77,9.1-79.79,16.59-88.89,110.36-9.1-93.77,4.16-101.26-89.61-110.36,93.77-9.1,80.51-16.35,89.61-110.12C746.21,688.49,732.23,695.74,826,704.84Z" style="fill:#f9d82b"/><path d="M742.63,669.7c.28,0,1.93,6,1.27,4.08,6,17.56,18.23,22,34.9,26.06-10.76.87-26.45-3.64-32.24-13.27C745.59,685,742.05,669.63,742.63,669.7Z" style="fill:#fa841e;opacity:0.15"/><path d="M821.68,704.68c-1.42.26-17.12,2.38-19.33,2.34-4-.07-14.88.32-17.28,0S818.06,704,821.68,704.68Z" style="fill:#fa841e;opacity:0.15"/><path d="M813.5,704.2c-1.45,0-17.29-.55-19.46-1-4-.75-14.71-2.2-17-2.93S810,702.89,813.5,704.2Z" style="fill:#fff;opacity:0.45"/><path d="M699.45,700c-1.41.35-17,3.4-19.16,3.5-4,.17-14.83,1.21-17.25,1S695.79,699.5,699.45,700Z" style="fill:#fff;opacity:0.45"/><path d="M732.59,747.76c.33,1.41,3.08,17,3.13,19.23.1,4,.93,14.84.69,17.26S732,751.42,732.59,747.76Z" style="fill:#fff;opacity:0.45"/><path d="M739.37,629.87c.24,1.43,2.13,17.16,2.06,19.37-.13,4,.1,14.88-.27,17.28S738.61,633.49,739.37,629.87Z" style="fill:#fff;opacity:0.45"/><path d="M737.1,810.81c-.1-1.44-.39-17.29-.1-19.47.53-4,1.39-14.82,2-17.17S738.22,807.29,737.1,810.81Z" style="fill:#fa841e;opacity:0.15"/><path d="M736.25,641c-.16-1.44-1.17-17.25-1-19.45.35-4,.72-14.86,1.22-17.24S737.21,637.39,736.25,641Z" style="fill:#fa841e;opacity:0.15"/><path d="M651.8,704.68c1.42.26,17.12,2.38,19.33,2.34,4-.07,14.87.32,17.28,0S655.42,704,651.8,704.68Z" style="fill:#fa841e;opacity:0.15"/><path d="M737,667.64c.33,0,.85,2.71.85,2.71,1.89,6.51,4.37,12.45,8.67,17.8,9,11.23,22.4,13.54,35.61,16.77-11.43.9-28.11-3.36-36.54-11.44-4.22-4.05-6-9.36-7.16-15C738.25,677.55,736.84,667.62,737,667.64Z" style="fill:#fff9d9;opacity:0.4"/><path d="M737.71,741.09c-.33,0-1-2.66-1-2.66-2.27-6.39-5.08-12.18-9.68-17.27-9.66-10.7-23.15-12.23-36.52-14.7,11.35-1.55,28.26,1.74,37.14,9.33,4.44,3.79,6.56,9,8,14.54C735.9,731.27,737.88,741.1,737.71,741.09Z" style="fill:#fff9d9;opacity:0.4"/><path d="M732.16,669.7c-.29,0-1.94,6-1.28,4.08-6,17.56-18.23,22-34.89,26.06,10.76.87,26.44-3.64,32.23-13.27C729.2,685,732.73,669.63,732.16,669.7Z" style="fill:#fa841e;opacity:0.15"/><path d="M767.26,713.31c0,.28-5.74,2.63-3.9,1.75-16.73,8-19.62,20.76-21.7,37.77-2.15-10.58.44-26.7,9.32-33.6C752.47,718.07,767.26,712.73,767.26,713.31Z" style="fill:#fa841e;opacity:0.15"/><path d="M706.25,713.31c0,1,8,3.73,8.93,4.3,13.09,8.25,14.92,20.93,16.66,35.22,2-9.65-.09-25.26-7.54-32.31C722.72,719,706.24,712.38,706.25,713.31Z" style="fill:#fa841e;opacity:0.15"/><path d="M354,289.84c-93.77,9.1-79.79,16.59-88.89,110.36-9.1-93.77,4.16-101.26-89.61-110.36,93.77-9.1,80.51-16.35,89.61-110.12C274.21,273.49,260.23,280.74,354,289.84Z" style="fill:#f9d82b"/><path d="M270.63,254.7c.28,0,1.93,6,1.27,4.08,6,17.56,18.23,22,34.9,26.06-10.76.87-26.45-3.64-32.24-13.27C273.59,270,270.05,254.63,270.63,254.7Z" style="fill:#fa841e;opacity:0.15"/><path d="M349.68,289.68c-1.42.26-17.12,2.38-19.33,2.34-4-.07-14.88.32-17.28,0S346.06,289,349.68,289.68Z" style="fill:#fa841e;opacity:0.15"/><path d="M341.5,289.2c-1.45,0-17.29-.55-19.46-1-4-.75-14.71-2.2-17-2.93S338,287.89,341.5,289.2Z" style="fill:#fff;opacity:0.45"/><path d="M227.45,285c-1.41.35-16.95,3.4-19.16,3.5-4,.17-14.83,1.21-17.25,1S223.79,284.5,227.45,285Z" style="fill:#fff;opacity:0.45"/><path d="M260.59,332.76c.33,1.41,3.08,17,3.13,19.23.1,4,.93,14.84.69,17.26S260,336.42,260.59,332.76Z" style="fill:#fff;opacity:0.45"/><path d="M267.37,214.87c.24,1.43,2.13,17.16,2.06,19.37-.13,4,.1,14.88-.27,17.28S266.61,218.49,267.37,214.87Z" style="fill:#fff;opacity:0.45"/><path d="M265.1,395.81c-.1-1.44-.39-17.29-.1-19.47.53-4,1.39-14.82,2-17.17S266.22,392.29,265.1,395.81Z" style="fill:#fa841e;opacity:0.15"/><path d="M264.25,226c-.16-1.44-1.17-17.25-1-19.45.35-4,.72-14.86,1.22-17.24S265.21,222.39,264.25,226Z" style="fill:#fa841e;opacity:0.15"/><path d="M179.8,289.68c1.42.26,17.12,2.38,19.33,2.34,4-.07,14.87.32,17.28,0S183.42,289,179.8,289.68Z" style="fill:#fa841e;opacity:0.15"/><path d="M265,252.64c.33,0,.85,2.71.85,2.71,1.89,6.51,4.37,12.45,8.67,17.8,9,11.23,22.4,13.54,35.61,16.77-11.43.9-28.11-3.36-36.54-11.44-4.22-4.05-6-9.36-7.16-15C266.25,262.55,264.84,252.62,265,252.64Z" style="fill:#fff9d9;opacity:0.4"/><path d="M265.71,326.09c-.33,0-1-2.66-1-2.66-2.27-6.39-5.08-12.18-9.68-17.27-9.66-10.7-23.15-12.23-36.52-14.7,11.35-1.55,28.26,1.74,37.14,9.33,4.44,3.79,6.56,9,8,14.54C263.9,316.27,265.88,326.1,265.71,326.09Z" style="fill:#fff9d9;opacity:0.4"/><path d="M260.16,254.7c-.29,0-1.94,6-1.28,4.08-6,17.56-18.23,22-34.89,26.06,10.76.87,26.44-3.64,32.23-13.27C257.2,270,260.73,254.63,260.16,254.7Z" style="fill:#fa841e;opacity:0.15"/><path d="M295.26,298.31c0,.28-5.74,2.63-3.9,1.75-16.73,8-19.62,20.76-21.7,37.77-2.15-10.58.44-26.7,9.32-33.6C280.47,303.07,295.26,297.73,295.26,298.31Z" style="fill:#fa841e;opacity:0.15"/><path d="M234.25,298.31c0,1,8,3.73,8.93,4.3,13.09,8.25,14.92,20.93,16.66,35.22,2-9.65-.09-25.26-7.54-32.31C250.72,304,234.24,297.38,234.25,298.31Z" style="fill:#fa841e;opacity:0.15"/><path d="M716,869.61c-68,6.6-57.89,12-64.49,80.07-6.6-68,3-73.47-65-80.07,68-6.6,58.41-11.86,65-79.89C658.11,857.75,648,863,716,869.61Z" style="fill:#f9d82b"/><path d="M655.51,844.12c.21,0,1.41,4.35.93,3C660.8,859.82,669.67,863,681.76,866c-7.81.64-19.19-2.63-23.39-9.63C657.66,855.18,655.1,844.06,655.51,844.12Z" style="fill:#fa841e;opacity:0.15"/><path d="M712.87,869.49c-1,.2-12.43,1.73-14,1.7-2.93-.05-10.79.23-12.54,0S710.24,869,712.87,869.49Z" style="fill:#fa841e;opacity:0.15"/><path d="M706.93,869.14c-1,0-12.54-.39-14.11-.69-2.88-.54-10.68-1.59-12.36-2.13S704.42,868.2,706.93,869.14Z" style="fill:#fff;opacity:0.45"/><path d="M624.19,866.09c-1,.25-12.3,2.46-13.9,2.53-2.93.13-10.76.88-12.52.74S621.53,865.74,624.19,866.09Z" style="fill:#fff;opacity:0.45"/><path d="M648.24,900.75c.23,1,2.23,12.35,2.26,14,.07,2.92.68,10.77.51,12.53S647.83,903.4,648.24,900.75Z" style="fill:#fff;opacity:0.45"/><path d="M653.15,815.22c.18,1,1.54,12.45,1.49,14-.09,2.93.08,10.8-.19,12.54S652.6,817.85,653.15,815.22Z" style="fill:#fff;opacity:0.45"/><path d="M651.51,946.49c-.08-1-.29-12.54-.08-14.13.39-2.9,1-10.74,1.45-12.45S652.31,943.94,651.51,946.49Z" style="fill:#fa841e;opacity:0.15"/><path d="M650.89,823.27c-.12-1-.85-12.52-.71-14.11.25-2.92.52-10.78.88-12.51S651.58,820.68,650.89,823.27Z" style="fill:#fa841e;opacity:0.15"/><path d="M589.62,869.49c1,.2,12.42,1.73,14,1.7,2.93-.05,10.79.23,12.54,0S592.25,869,589.62,869.49Z" style="fill:#fa841e;opacity:0.15"/><path d="M651.44,842.62c.24,0,.61,2,.61,2a36.11,36.11,0,0,0,6.29,12.91c6.55,8.15,16.26,9.82,25.84,12.17-8.29.65-20.39-2.44-26.51-8.3-3.06-2.94-4.38-6.79-5.19-10.87C652.34,849.81,651.32,842.61,651.44,842.62Z" style="fill:#fff9d9;opacity:0.4"/><path d="M651.94,895.91c-.24,0-.72-1.93-.72-1.93a36,36,0,0,0-7-12.53c-7-7.76-16.8-8.87-26.49-10.66,8.23-1.13,20.49,1.26,26.94,6.76,3.22,2.76,4.76,6.53,5.81,10.56C650.63,888.78,652.07,895.92,651.94,895.91Z" style="fill:#fff9d9;opacity:0.4"/><path d="M647.92,844.12c-.21,0-1.41,4.35-.93,3C642.63,859.82,633.77,863,621.68,866c7.8.64,19.18-2.63,23.38-9.63C645.77,855.18,648.33,844.06,647.92,844.12Z" style="fill:#fa841e;opacity:0.15"/><path d="M673.38,875.75c0,.21-4.16,1.92-2.83,1.28-12.13,5.82-14.23,15.06-15.74,27.39-1.56-7.67.32-19.36,6.76-24.37C662.65,879.21,673.38,875.33,673.38,875.75Z" style="fill:#fa841e;opacity:0.15"/><path d="M629.12,875.75c0,.74,5.82,2.71,6.48,3.13,9.5,6,10.82,15.18,12.09,25.54,1.42-7-.07-18.32-5.47-23.43C641.07,879.9,629.12,875.08,629.12,875.75Z" style="fill:#fa841e;opacity:0.15"/></svg>