<svg id="Layer_1" data-name="Layer 1" xmlns="http://www.w3.org/2000/svg" viewBox="0 0 1000 1000"><title>eye icon black w strikethru</title><path d="M497.17,182c211,6.81,366.36,105.11,470.56,287.74,11.7,20.49,10.66,39.21-1,59.36-104.9,180.75-257,288-470.07,288.25C282.29,817.57,129,709.8,24.79,527.61c-8.26-14.43-9.44-41.31-1.47-55.34C127.36,289.05,284,189.75,497.17,182Zm.84,96.68c-156.59,3.57-277.54,72.8-367.49,199.79-10.12,14.27-10.44,24.9-.75,40.09,172.67,270.73,555.42,271.37,730.55,1.21,10.28-15.86,10.49-27.32-.22-42.75C772.37,350.66,653,282.73,498,278.68Z"/><path d="M498,278.68c155,4.05,274.36,72,362.09,198.34,10.71,15.43,10.5,26.89.22,42.75-175.13,270.16-557.88,269.52-730.55-1.21-9.69-15.19-9.37-25.82.75-40.09C220.47,351.48,341.42,282.25,498,278.68Zm153.8,219.15A155.74,155.74,0,0,0,496,340.79c-85.88-.22-155.62,67.8-156.84,153-1.24,86.47,67.68,157.68,154.27,159.4C578.6,654.85,651.17,583.7,651.81,497.83Z" style="fill:#fff"/><path d="M651.81,497.83c-.64,85.87-73.21,157-158.43,155.32-86.59-1.72-155.51-72.93-154.27-159.4,1.22-85.16,71-153.18,156.84-153A155.74,155.74,0,0,1,651.81,497.83ZM494.73,437.12c-33,.33-58.93,25.92-59.36,58.58-.44,33.12,27.81,61.51,60.74,61.05C528,556.3,555,529.26,555.5,497.3,556,463.55,529,436.79,494.73,437.12Z"/><path d="M494.73,437.12C529,436.79,556,463.55,555.5,497.3c-.47,32-27.48,59-59.39,59.45-32.93.46-61.18-27.93-60.74-61.05C435.8,463,461.74,437.45,494.73,437.12Z" style="fill:#fff"/><path d="M910.36,218,40.87,715.28C13.79,730.77.74,758.47,11.73,777.14h0c11,18.67,41.85,21.25,68.93,5.76l869.5-497.33c27.08-15.49,40.12-43.19,29.13-61.86h0C968.31,205,937.44,202.46,910.36,218Z"/></svg>