<svg id="Layer_1" data-name="Layer 1" xmlns="http://www.w3.org/2000/svg" viewBox="0 0 1000 1000"><title>notifications icon</title><path d="M510.15,22a126.2,126.2,0,0,1,68.28,31.23,123.93,123.93,0,0,1,10.19,10.31q1.8,2.05,3.5,4.17a123.77,123.77,0,0,1,15.13,131.58c-3.27,6.81-2.78,9.06,4.2,12.45,107.93,52.48,165.93,139.1,169.61,258.79,1.93,62.88,16.77,119.64,54.13,170.33C841.92,650,848,659.64,854,669.25c35.22,56.06,7.25,128-56.54,145.71-113.74,31.6-229.81,41.32-347.4,37.59-87.34-2.77-173.38-14.12-257.69-37.54-65.32-18.14-92.9-91.08-55.74-147.76,11-16.83,22.41-33.44,33.61-50.16,28.43-42.44,41.91-89.3,43.31-140.28q5-181.53,167.42-263.68c4.14-2.09,6.67-2.84,3.72-8.71A138.65,138.65,0,0,1,371.9,166a126,126,0,0,1-.79-38,120.84,120.84,0,0,1,30.73-65.77A127.68,127.68,0,0,1,481,21.74,122.92,122.92,0,0,1,510.15,22Z" style="fill:#e64a4a"/><path d="M479.13,980.13a128.46,128.46,0,0,1-19.81-3.88c-4.34-1.22-8.44-2.81-12.62-4.43A100.08,100.08,0,0,1,420,956.75a84.25,84.25,0,0,1-13.43-13.53c-11.67-14.85-5.9-33,13-41.94,19.06-9.06,43.42-5.41,56.87,8.53,11.56,12,24.89,12,36.42,0,13.47-14,37.88-17.63,56.86-8.56s24.9,27.22,13.07,41.9c-13.78,17.09-33.27,27.42-54.12,33.19A130.3,130.3,0,0,1,479.13,980.13Z" style="fill:#e64a4a"/><path d="M495.47,779.66c-99.76-.26-198.33-10-294.82-36.59-17.81-4.91-20.92-13.3-10.76-28.46S210.15,684,220.48,668.9c40.88-59.95,62.1-126.1,62.88-198.72.79-73.36,28.3-134.29,86.8-179.18,120.72-92.63,293.93-31.59,334.32,117.17a229.67,229.67,0,0,1,7.85,62.67c-.77,76,20.58,145.22,63.34,208q12.86,18.87,25.29,38c8.14,12.55,4.61,21.56-9.75,25.6C694.49,769.57,595.58,779.38,495.47,779.66Z" style="fill:#fdfdfd"/><path d="M494.81,186.68c-27.4,0-48-20.15-48.14-47.17C446.53,112,467.58,91,495.14,91.1c26.71.07,47.65,21.27,47.58,48.16C542.65,166.36,522.16,186.64,494.81,186.68Z" style="fill:#fdfdfd"/></svg>