<svg id="Layer_1" data-name="Layer 1" xmlns="http://www.w3.org/2000/svg" viewBox="0 0 1000 1000"><title>password change</title><path d="M278.71,588.12c0-35-.43-70.09.11-105.12.39-25.24,12.42-43.39,38-47.75,16.9-2.88,19.81-12,20.07-26.43.5-28.56-1.76-57.06,5.08-85.59,20.49-85.39,88.24-133,180.5-125,69.38,6,133,77,137.13,153.41a299.4,299.4,0,0,1,.3,35.06c-.58,9.08-2.48,19-.22,27.95,2.33,9.28,10.48,14.54,19,17.62,4.38,1.57,9,2.38,13.25,4.31,15.58,7,25.54,26.9,26.55,43.39,4.43,72.15,6.22,144.4-1.84,216.37-3.81,34-29.83,48.09-59.59,53.23a844.22,844.22,0,0,1-168,12.37c-46.39-1.35-93.25-2.27-139.47-10.63C298.23,742,279.32,722.09,278.79,671,278.5,643.39,278.74,615.75,278.71,588.12Zm219.63-98.67c-44.57,0-89.15.71-133.7-.31-21.23-.49-31.05,5.9-30.5,28.82,1.15,48.79.94,97.63.1,146.43-.36,20.2,8.66,28.66,27.61,31,91,11.2,181.91,10.56,272.88,0,18.92-2.2,28.06-11,27.76-31.1-.75-48.8-1-97.64.1-146.43.54-23-9.34-29.24-30.55-28.74C587.49,490.14,542.91,489.42,498.34,489.45Zm-1.22-59.87h76.54c14.29,0,26-4,25.86-20.92-.17-25.47,2-51.54-2.64-76.27-11.59-61.95-81.64-96.08-139-69.93-25.17,11.48-47.76,34.42-56.38,63.14C393,354,396,387,397.87,416c.89,13.76,15.19,13.48,25.91,13.6C448.22,429.8,472.68,429.63,497.12,429.58Z" style="fill:#f78636"/><path d="M785.86,118.51c-2.15-20.56-3-34.15-5.13-47.52-2.46-15.26,4.35-25.36,17.54-29.87,14.5-4.95,26.05,2.81,30.17,16.24,12.77,41.67,16.14,85.2,22,128.14,2.11,15.38-10.13,23.21-23.52,25.43-37.58,6.26-75.29,12-113.11,16.54-14.21,1.72-28.94-1.48-31.41-19.37-2.52-18.27,8-27.14,25.28-30.06,15.27-2.59,30.4-6,51.3-10.17-32.89-32.13-68.4-50.34-104.62-66.52C410.12-7.77,118.45,153.74,78.35,418.53c-9.94,65.66-4.28,128.81,14.16,191.69,1.79,6.1,4.21,12.06,5.48,18.26,3.39,16.49-.65,31.28-18,35.52-15.82,3.86-25-7.69-30.57-21.61C28.14,589.28,22.21,533.84,22.2,477c0-223.46,166.26-417.41,391.35-455.3C540,.46,655.59,30.2,761.14,101.68,767.16,105.75,773.16,109.86,785.86,118.51Z" style="fill:#fbb05d"/><path d="M213.32,884.07c0,20.95.3,35.78-.1,50.59-.34,12.76-5.06,23.58-19.15,25.38-13.15,1.68-24.78-5.24-27.14-17.45-8-41.57-15-83.41-20.08-125.43-1.88-15.71,11.15-25,26-27.59,35.47-6.26,71-12.14,106.74-16.86,16.91-2.24,33.33,1.48,35.68,22.39,2.17,19.4-12.11,25.09-27.94,27.95-14.38,2.6-28.76,5.23-45.25,8.22C253,846,259,850,273,861.5,512.37,1026.76,849.6,893.58,913.2,609.37c15.87-70.93,14.38-141-6.44-210.67-1.22-4.07-2.23-8.2-3.34-12.3-4.69-17.44-13.22-38,10.2-46.57,25.5-9.32,33.48,12.51,39,30.9,45.61,152,26,294.66-68.29,423.22-92.09,125.53-220.19,188.2-374.24,191.92-93.93,2.26-182.58-24.2-261.19-78.56C238.61,900.2,228,893.61,213.32,884.07Z" style="fill:#fbb05d"/><path d="M538.24,567.88a88,88,0,0,1-2.85,17.1c-4.06,15.94-8,31.91-12.62,47.74-3.32,11.33-13.26,15.85-24.93,15.91-11.94.06-21.23-5.56-24.49-16.58-6-20.12-11.89-40.53-14.61-61.25-3.18-24.2,15.85-43.06,40.36-42.26,12.37.4,25.16,4.44,32.73,14.81C537.21,550.72,538.69,559.25,538.24,567.88Z" style="fill:#f78636"/></svg>