<svg id="Layer_1" data-name="Layer 1" xmlns="http://www.w3.org/2000/svg" viewBox="0 0 539.26 220.07"><title>pollen words white no back</title><path d="M239.89,279.78a41,41,0,0,0-29-10.93c-15.12.42-27.43,6.49-35.31,20.25-.72-6.31-.52-12.45-1.39-18.59H151.32v8.26h16V399.68H152.71c.27,2.95-.35,5.51.43,8h41.69v-8.19H176.31V336.07c8.1,12.38,19.57,18,33.66,18.33s25.9-5.16,34.82-16.22A42.75,42.75,0,0,0,239.89,279.78Zm-29,66.36c-20.24-.1-35-15.89-34.54-34.65-.44-19,15.17-34.14,34.66-34.06,19.22.08,34.28,15.07,34.24,34.19C245.19,331,230.09,346.25,210.87,346.14Z" transform="translate(-151.32 -187.6)" style="fill:#fff"/><path d="M690.31,344.09h-16v-3.87c0-15.31,0-30.61,0-45.92.06-13.95-8.64-25-24.32-25.64-16-.65-28.66,5.77-37,19.88-.4.69-.51,1.67-1.51,1.89a162.57,162.57,0,0,1-1.11-20H587.65v8.43H603V344.2H586.23v8.5H628.3c-.06-2.9.31-5.66-.37-8.75H612V306.19a23.93,23.93,0,0,1,5.28-15.05c7.44-9.42,17.43-13.91,29.33-13.77,12.6.15,18.84,10.13,18.82,19.11,0,14.81,0,29.63,0,44.44,0,1.05.4,2.22-.71,3.37H648.37c.07,3-.42,5.71.25,8.44h41.91C690.47,349.66,690.78,347,690.31,344.09Z" transform="translate(-151.32 -187.6)" style="fill:#fff"/><path d="M566.8,292.34c-8.39-17.07-24.92-27.08-44.24-22.79-22.89,5.09-36.63,26.37-33.53,47.4,2.59,17.62,12.7,29.19,29.27,35.14A40.58,40.58,0,0,0,538,353.74c8.6-1.2,15.76-5.06,22.29-10.58-1.53-2.58-3.6-4.33-5.23-6.47-19,16.25-45.7,8.61-53.92-10.37l68.07-27.05A18.74,18.74,0,0,0,566.8,292.34Zm-68.44,25.85c-1.31-8.78-.53-16.6,3.69-24a33.25,33.25,0,0,1,37.2-16.09c8.63,2.22,14.72,8,19.19,16.23Z" transform="translate(-151.32 -187.6)" style="fill:#fff"/><path d="M313.07,268.45A42.93,42.93,0,0,0,270,311.72c.12,23.85,19.16,42.65,43.35,42.53,24.77-.13,43.49-20.07,43.29-43A43.41,43.41,0,0,0,313.07,268.45Zm0,77.21a34.17,34.17,0,0,1-34.4-33.74c-.32-19.43,16-35.14,34.11-34.79,17.86-.48,34.57,14.18,34.65,34.33A34.19,34.19,0,0,1,313.06,345.66Z" transform="translate(-151.32 -187.6)" style="fill:#fff"/><path d="M455.59,187.81H431.26c.25,2.78-.49,5.42.51,8.15H446.7V344.24H430.76v8.43h41.87v-8.53h-17Z" transform="translate(-151.32 -187.6)" style="fill:#fff"/><path d="M397.38,188c-4.68-.68-21.41-.54-24.2.17v7.58c5.37.46,10.41-.23,15.47.42v148H372.81a41,41,0,0,0-.06,8.43h41.93v-8.55h-17.3Z" transform="translate(-151.32 -187.6)" style="fill:#fff"/></svg>