<svg id="Layer_1" data-name="Layer 1" xmlns="http://www.w3.org/2000/svg" viewBox="0 0 1000 1000"><title>save icon</title><path d="M141.08,54.61H760.93c6.63,2.22,12.8,5,17.9,10.16q78.58,78.77,157.34,157.36a34.17,34.17,0,0,1,10.48,25.27q-.07,301.5-.13,603a97.32,97.32,0,0,1-2.27,21.19c-10.16,44.89-48.32,75-94.78,75q-230.72,0-461.45,0-118.54,0-237.09,0c-44.16-.05-81.63-28.71-93-71-1.37-5.09-2.2-10.33-3.28-15.5V141.08c.29-1.16.67-2.3.86-3.48C62.24,97.35,85.19,71,123.87,58.39,129.42,56.57,135.33,55.84,141.08,54.61ZM819.18,882.9c10.46,0,20.16,0,29.87,0,20.44,0,33.82-13.45,33.84-34q0-41.17,0-82.36,0-251.41-.11-502.84c0-2.42-.87-5.52-2.49-7.16q-60.63-61-121.54-121.73c-.86-.85-1.85-1.58-3.29-2.81v5.88q0,118.32,0,236.63c0,35.11-27.21,62.33-62.32,62.35q-192.48.11-385,0a63.28,63.28,0,0,1-13.53-1.38c-29-6.38-48.84-31-48.86-60.87q-.08-125.35,0-250.73v-5.11a9.29,9.29,0,0,0-1.47-.37c-31.85,0-63.71-.2-95.56.18-4.9.06-10.22,1.92-14.56,4.36C123,129.2,118.3,139.4,118.3,152.1q.06,348.57,0,697.15c0,.76,0,1.52,0,2.27a31.84,31.84,0,0,0,31.44,31.34c9.7.16,19.41,0,29.12,0a24,24,0,0,0,3.14-.41v-5.7q0-93.06,0-186.12c0-35.4,27.13-62.58,62.52-62.59q256-.06,511.94,0a64.83,64.83,0,0,1,14,1.43c28.87,6.4,48.63,31,48.67,60.54q.12,93.51,0,187ZM246.08,692V882.54H755.22V692Zm63.6-319.09H691.39V118.59H628v74.32c0,27.91.14,55.82-.06,83.73-.14,19.8-17.45,34.16-37,31.12-15.48-2.4-26.61-15.65-26.63-32q-.09-76,0-152v-5.17H309.68Z" style="fill:#f36946"/><path d="M819.18,882.9v-5.8q0-93.51,0-187c0-29.59-19.8-54.14-48.67-60.54a64.83,64.83,0,0,0-14-1.43q-256-.11-511.94,0c-35.39,0-62.49,27.19-62.52,62.59q-.09,93.06,0,186.12v5.7a24,24,0,0,1-3.14.41c-9.71,0-19.42.14-29.12,0a31.84,31.84,0,0,1-31.44-31.34c0-.75,0-1.51,0-2.27q0-348.57,0-697.15c0-12.7,4.72-22.9,15.87-29.18,4.34-2.44,9.66-4.3,14.56-4.36,31.85-.38,63.71-.19,95.56-.18a9.29,9.29,0,0,1,1.47.37v5.11q0,125.37,0,250.73c0,29.84,19.82,54.49,48.86,60.87a63.28,63.28,0,0,0,13.53,1.38q192.48.11,385,0c35.11,0,62.28-27.24,62.32-62.35q.1-118.32,0-236.63V132c1.44,1.23,2.43,2,3.29,2.81q60.82,60.81,121.54,121.73c1.62,1.64,2.49,4.74,2.49,7.16q.18,251.42.11,502.84,0,41.18,0,82.36c0,20.53-13.4,33.94-33.84,34C839.34,882.91,829.64,882.9,819.18,882.9Z" style="fill:#fff"/><path d="M246.08,692H755.22V882.54H246.08Z" style="fill:#fff"/><path d="M309.68,372.86V118.56H564.33v5.17q0,76,0,152c0,16.39,11.15,29.64,26.63,32,19.55,3,36.86-11.32,37-31.12.2-27.91.06-55.82.06-83.73V118.59h63.35V372.86Z" style="fill:#fff"/></svg>