<svg id="Layer_1" data-name="Layer 1" xmlns="http://www.w3.org/2000/svg" xmlns:xlink="http://www.w3.org/1999/xlink" viewBox="0 0 973.56 780.15"><defs><linearGradient id="linear-gradient" x1="493.94" y1="126.38" x2="506.08" y2="872.69" gradientUnits="userSpaceOnUse"><stop offset="0" stop-color="#ffa368"/><stop offset="1" stop-color="#ff315a"/></linearGradient></defs><title>message icon</title><path d="M699.58,649.92c.17-.55.35-1.09.54-1.63,0-.55-.09-1.1-.14-1.65C699.83,647.72,699.7,648.82,699.58,649.92Z" transform="translate(-13.22 -109.93)" style="fill:#fefefe"/><path d="M985.79,375.46c0-1.09-.14-2.19-.21-3.28,0,0,1.68-171.59,1.06-175.43-6.3-39-27.72-66-64.65-80.48-14.53-5.69-29.87-6.25-45.11-6.26q-285.61-.15-571.24-.08a9.93,9.93,0,0,1-3.13.48S166.38,111.94,164,111.9c-16.2-.26-32.41,0-48.61-.13-32.58-.26-59.86,11.06-80.69,36.61A90.15,90.15,0,0,0,14.2,197.16c-.85,6.85-1,33.84-1,48q0,38.46.19,76.94h0c-.07,18-.18,36.08-.18,54.13q0,41.41.18,82.85c-.07,1.88-.19,3.76-.19,5.64q0,77.74,0,155.48c0,4.55.11,9.11.16,13.66h0c-.06,1.88-.17,3.76-.17,5.64q0,61,0,122c0,9.41.11,18.83.16,28.25h0a85,85,0,0,0,2.76,27.08c10.48,42,48.43,72.82,91.64,73,88.94.4,177.88.16,266.81.16q255.48,0,511,.07c18,0,35.16-3.22,50.62-12.51,32.28-19.4,49.52-47.75,49.39-85.93C985.64,789.9,985.78,445.54,985.79,375.46ZM946.13,216.1a28.34,28.34,0,0,1,.21,5.61q0,48.16,0,96.34c0,16.05-.06,32.11,0,48.16,0,1.5-1.09,242.1-1.13,292.88,0,1.89.6,4-.92,5.9-3.45-2.2-52-40.5-62.21-49-16.35-13.68-32.52-27.56-48.85-41.26q-26.16-22-52.47-43.78c-14.87-12.35-45.75-38.09-46.35-38.58-19.44-16.2-38.83-32.46-58.4-48.5-3.17-2.6-3.12-3.83,0-6.41q32.42-26.66,64.55-53.65c13-10.88,86.15-70.86,107-88.06,31.73-26.19,63.52-52.3,95-78.77C943.55,216.15,944.5,214.43,946.13,216.1ZM71.89,167.92c10.83-10,23.48-15.39,38.44-15.39q388.35.08,776.68-.07c15.72,0,28.84,5.35,40.45,15.38,3.87,3.34,3.9,4.31-.09,7.67-8.77,7.42-103,87.81-130.7,110.87-14.07,11.71-28.26,23.29-42.32,35-10,8.31-19.77,16.78-29.65,25.18-9,7.41-18,14.77-26.94,22.22Q616.9,436.22,536.07,503.7c-19.85,16.6-52.88,16.81-73,0q-83.79-69.81-167.53-139.68c-9.2-7.65-42.64-36.62-48.57-41.53-30.5-25.25-60.71-50.84-91.05-76.28-18.29-15.35-62.11-52.18-64.15-53.89-6.5-5.47-13.05-10.88-19.57-16.34C68,172.51,67.89,171.62,71.89,167.92Zm66.57,429.29C125.59,608,80.08,644.58,72.54,650.76c-6.14,5-12,10.4-18.74,15.31a13.56,13.56,0,0,1-.47-5.06c0-7.71,0-349.06,0-351.7q0-44.61,0-89.23c0-1.53-.39-3.12.38-4.62.93-.05,1.44.6,2,1.09Q129.32,277.93,203,339.23c1.58,1.31,82.49,67.09,119.33,97.78,4.32,3.6,4.3,3.62,0,7.22l-37.85,31.85h0c-.76.54-1.57,1-2.29,1.61q-33.33,27.74-66.65,55.49Q177,565.2,138.46,597.21ZM945.27,795.75c-.75,17.11-8.26,30.79-21.31,41.48-11.21,9.19-24.4,12.47-38.73,12.47q-385.59-.08-771.16,0c-1.1,0-2.2,0-3.31,0-31.43-.38-55.61-23.64-57.21-55-.08-1.58-.26-9.05-.25-11.05q.08-28.8,0-57.6c0-3.35.82-5.94,3.56-8.22,26.78-22.19,126-106.67,138.74-117.26q49.89-41.46,99.7-83c15.33-12.79,30.55-25.69,45.82-38.54h0c4-3.25,8.31-6.24,12-9.83,2.94-2.87,4.84-2.51,7.81,0,25.15,21.16,50.53,42,75.65,63.23a97.73,97.73,0,0,0,125.41.34c25.69-21.49,51.5-42.84,77.16-64.37,2.32-1.95,3.56-1.84,5.8.05,11,9.32,22.27,18.44,33.43,27.62Q702,515.8,725.66,535.65q47.37,39.61,94.81,79.14c14.93,12.43,96.59,82.09,120.11,101.47a12.26,12.26,0,0,1,5,10.49C945.37,744.5,945.41,792.51,945.27,795.75Z" transform="translate(-13.22 -109.93)" style="fill:url(#linear-gradient)"/></svg>