<svg id="Layer_1" data-name="Layer 1" xmlns="http://www.w3.org/2000/svg" viewBox="0 0 1000 1000"><title>rip</title><path d="M185.8,694.49c-57.34.23-111.31-29.24-142.72-76.13A166.91,166.91,0,0,1,17.5,555.75a155.26,155.26,0,0,1-2.75-31c.71-46.64,16.54-87.31,49-121,24.1-25,53.41-40.82,87.48-47.77a161.72,161.72,0,0,1,37.16-3.48c43.33,1.3,81.15,16.35,112.82,46.08,28,26.28,44.89,58.68,51.78,96.35a170.58,170.58,0,0,1,2,44.95,161.48,161.48,0,0,1-19.1,63.87,172.32,172.32,0,0,1-63,66.4A163,163,0,0,1,213,692.29c-4.1.64-8.21,1.31-12.35,1.63C195.72,694.3,190.75,694.31,185.8,694.49Z" style="fill:#f36946"/><path d="M984.2,805.58c-.67,45-16.39,84-47.42,116.59A166.05,166.05,0,0,1,853,970.07a159.39,159.39,0,0,1-45.23,4.11c-37.69-2-71.66-14.21-101-38.14-31.15-25.38-50.76-57.93-58.92-97.32a162.22,162.22,0,0,1-3.43-38.62c1.39-40.64,15.14-76.6,41.88-107.29,23.94-27.47,53.82-45.38,89.31-53.84a162,162,0,0,1,49.53-4.15c44.13,3.24,81.77,20.68,112.35,52.75,21.7,22.75,35.78,49.69,42.63,80.37A164.61,164.61,0,0,1,984.2,805.58Z" style="fill:#ee5241"/><path d="M814.84,29.07c97.64.8,170.77,78.46,170.24,170.75C984.53,294.19,907,369.37,814.54,369c-91.47-.42-169.8-74.63-169.23-171.39A169.45,169.45,0,0,1,814.84,29.07Z" style="fill:#e4423b"/><path d="M416.64,490c.91-10.56-2.85-19.6-6.46-28.66-6-15.05-13.7-29.21-22.12-43a208.66,208.66,0,0,0-14.81-21.22,85.28,85.28,0,0,0-9.65-10,22,22,0,0,0-5.64-3.57c-.06-1.06.79-1.19,1.49-1.43a115.6,115.6,0,0,0,15-6.36c15-7.46,30.14-14.81,45-22.61,17.69-9.29,35.17-19,52.72-28.52,10.1-5.5,20.2-11,30.23-16.67q15.47-8.7,30.78-17.64,17.21-10,34.31-20.16c9.21-5.48,18.29-11.16,27-17.32,1.57-1.1,3.08-2.27,4.62-3.41,1.13.34.77,1.27.72,2-.49,6.37,1.19,12.39,3.23,18.27,1.88,5.43,4,10.78,6.42,16a315.64,315.64,0,0,0,20.25,37.54,205.65,205.65,0,0,0,14.78,20.65c3.79,4.59,7.79,8.88,13,11.86.23.12.3.52.59,1-3.2,1.38-6.4,2.7-9.54,4.14-11.49,5.24-23,10.53-34.06,16.54-3,1.6-6,3.07-8.94,4.64C588.82,391,572,399.87,555.24,408.89q-18.15,9.8-36.09,19.95c-14.47,8.17-28.85,16.51-43.28,24.76q-20.61,11.79-40.7,24.43c-4.87,3.05-9.55,6.42-14.31,9.64A12.73,12.73,0,0,1,416.64,490Z" style="fill:#b3b3b3"/><path d="M599.77,775.27c-2.92-1.75-5.45-3.32-8-4.79-4.58-2.61-9.11-5.33-13.81-7.7-15.84-8-31.65-16-47.64-23.72-15.39-7.41-31-14.46-46.49-21.59q-17-7.8-34.05-15.4-14.46-6.42-29-12.54c-9.42-3.94-18.91-7.73-28.41-11.48a149.17,149.17,0,0,0-18.52-6.45,29.28,29.28,0,0,1-2.86-1.07c1.6-1.39,3.07-2.55,4.41-3.85a72.66,72.66,0,0,0,11.39-14.75,319,319,0,0,0,30.36-65.5c1.65-5,2.81-10.14,4.09-15.24a16.68,16.68,0,0,0,.32-3.81c0-2.56,0-5.11,0-7.59,1-.61,1.6.08,2.23.49a238.4,238.4,0,0,0,21.68,12.27c13.26,6.72,26.52,13.45,39.91,19.9q23.31,11.24,46.85,22,22.43,10.29,45,20.16,22,9.55,44.12,18.62a262.1,262.1,0,0,0,26.11,9.43c.91.26,1.77.65,3,1.11-8.88,6.58-14.43,15.55-19.71,24.68a319,319,0,0,0-26.54,58.86,111.19,111.19,0,0,0-4.95,20.91A20.65,20.65,0,0,0,599.77,775.27Z" style="fill:#b3b3b3"/></svg>