<svg id="Layer_1" data-name="Layer 1" xmlns="http://www.w3.org/2000/svg" viewBox="0 0 1000 1000"><title>speaker icon</title><path d="M885.22,472.45c24.58,0,49.16,0,73.74,0,18,0,30.31,8.39,30.61,26.94.32,19.82-12.38,28.45-31.42,28.46-50.7,0-101.4,0-152.1,0-19.14,0-32.09-8.67-31.82-28.17s13.59-27.6,32.64-27.38C833,472.67,859.11,472.45,885.22,472.45Z" style="fill:#aa3030"/><path d="M801.81,633.46c7.55-.75,14,3.48,20.46,7.76,36.48,24.27,73.08,48.36,109.37,72.91,18.46,12.49,23.25,28.7,12.73,42.61-12.26,16.21-27.43,14.88-42.71,4.75-37.81-25-75.41-50.42-113.08-75.69-12-8-18.77-18.61-13.5-33.28C779.32,640.74,787.7,633.38,801.81,633.46Z" style="fill:#aa3030"/><path d="M803.18,366.53c-13-.14-21.65-5.2-26.72-16.19-5.69-12.35-2.58-24.43,7.17-31.26,41.54-29.11,83.6-57.55,126.45-84.68,12.12-7.68,25.91-2.86,34.38,9.59,8,11.7,7.11,25.66-3.31,33.65-41.48,31.8-85.53,60-130.06,87.33C808.67,366.47,805.14,366.18,803.18,366.53Z" style="fill:#aa3030"/><path d="M709,185.84c.06-30.76-10.89-54.71-38.38-68.11s-53.3-7.4-77.53,11.24c-47.59,36.61-96,72.17-144,108.26-19.75,14.85-24.2,30.21-13.24,44.5s26.81,14.43,46.51-.26C528.67,247,574.76,212.22,621,177.67c7.2-5.38,14-14.2,24.3-9.64,10.84,4.82,7.32,15.88,7.34,24.67q.25,129.38.07,258.76-.27,165.17-.86,330.33c.89,18.78.44,23.58-.85,29.21-2.84,12.45-10.87,16.58-22.34,9.88-6-3.49-11.34-7.93-16.92-12-60.74-44.68-120-91.35-180.91-135.79-20-14.61-31-23.38-36.9-52.72-4.62-23.11-5-32.54-5-41.76-.08-77,.1-154-.13-231-.08-24.62-10.08-36.48-31.42-36.56-54.68-.22-109.4-1.09-164,.8C94.6,315.2,15.3,392.93,10.66,488.72c-4.81,99.56,62.93,183,162.56,197.37,52.72,7.63,106.11,1.93,159.18,2.73,13,.2,23.32,3.3,33.81,11.23,76.11,57.56,152.83,114.33,229,171.84,23.65,17.86,49.07,23.48,75.59,10.57,27.48-13.38,38.27-37.46,38.21-68.2Q708.34,500.05,709,185.84ZM329.55,579.45c2,54.33,2,54.81-52.6,54.15-32.86-.39-65.9,3.48-98.56-2.56C115.87,619.49,76.14,577.32,67.22,513.61h0C60,435.75,117.07,370,195.65,367.07c39.18-1.45,78.46.1,117.68-.63,12.9-.24,17.47,3.62,17.3,16.91-.82,65.36-.8,130.73-1.08,196.1Z" style="fill:#e4423b"/></svg>