<svg id="Layer_1" data-name="Layer 1" xmlns="http://www.w3.org/2000/svg" viewBox="0 0 200 200"><title>white spore no back 200x200</title><rect x="106.9" y="48.43" width="6.03" height="53.69" transform="translate(36.05 -35.59) rotate(21.92)" style="fill:#fff"/><rect x="86.94" y="98.12" width="6.03" height="53.52" transform="translate(53.12 -24.55) rotate(21.92)" style="fill:#fff"/><rect x="86.58" y="48.41" width="6.03" height="53.43" transform="translate(-22.06 40.41) rotate(-22.71)" style="fill:#fff"/><rect x="107.26" y="97.78" width="6.03" height="53.64" transform="translate(-39.55 52.23) rotate(-22.71)" style="fill:#fff"/><rect x="71.98" y="62.92" width="6.03" height="53.63" transform="translate(-36.25 125.81) rotate(-68.08)" style="fill:#fff"/><rect x="121.74" y="83.08" width="6.03" height="53.7" transform="translate(-23.79 184.63) rotate(-68.08)" style="fill:#fff"/><rect x="72.28" y="83.58" width="6.03" height="53.66" transform="translate(2.52 222.5) rotate(-112.71)" style="fill:#fff"/><rect x="121.66" y="62.95" width="6.03" height="53.6" transform="translate(90.02 239.41) rotate(-112.71)" style="fill:#fff"/><circle cx="149.53" cy="79.45" r="6.27" style="fill:#fff"/><circle cx="120.11" cy="50.41" r="6.27" style="fill:#fff"/><circle cx="79.36" cy="50.44" r="6.27" style="fill:#fff"/><circle cx="50.3" cy="79.48" r="6.27" style="fill:#fff"/><circle cx="50.55" cy="120.77" r="6.27" style="fill:#fff"/><circle cx="79.75" cy="149.59" r="6.27" style="fill:#fff"/><circle cx="120.46" cy="149.56" r="6.27" style="fill:#fff"/><circle cx="149.7" cy="120.19" r="6.27" style="fill:#fff"/></svg>