<svg id="Layer_1" data-name="Layer 1" xmlns="http://www.w3.org/2000/svg" viewBox="0 0 1000 1000"><title>star icon</title><path d="M504.28,35c6.31,6.6,14.72,12.16,18.61,20q65.43,131.25,129.56,263.15c3.54,7.25,7.86,10.9,16.3,12.1,96.84,13.73,193.62,27.95,290.42,42,11.09,1.61,21.64,4.26,25.29,16.62s-2.74,21.14-11.34,29.44q-105.63,102-211,204.23c-5.64,5.45-6.77,10.49-5.41,18.2q25.5,145.13,50.17,290.38c1.79,10.47,2,21-8.22,28-9.87,6.72-19.4,4-29.15-1.17-86.43-45.71-173-91.11-259.29-137.11-8.14-4.34-13.86-3.44-21.3.52Q360.58,889.6,232,957.36c-4.9,2.59-10.07,5.39-15.42,6.29-16.17,2.71-27.93-10.77-25-28.75,5.14-31.46,10.78-62.84,16.19-94.25C219.29,773.57,231,706.52,242,639.35c.85-5.17-2-12.83-5.81-16.6q-99.58-98-199.92-195.26c-4.63-4.52-9.36-9-13.7-13.74C7.41,397,13.48,377.25,35.82,373.49c38.24-6.43,76.67-11.72,115-17.32,60.55-8.84,121.16-17.29,181.61-26.71,5.41-.85,11.93-6.58,14.51-11.75C390.41,230.61,433.14,143.15,476.55,56c3.95-7.92,11.5-14.06,17.38-21Zm-4.08,74.13c-2.76,5-4.71,8.31-6.4,11.72q-57.45,116.45-114.73,233c-5.48,11.2-13.17,16.55-25.69,18.27-72.59,9.94-145.07,20.57-217.58,31.05-16.64,2.41-33.23,5.13-53,8.19,6.08,5.41,9.76,8.43,13.14,11.74,60.73,59.42,121.27,119,182.3,178.16,9.79,9.48,13,19.44,10.75,32.41q-16.5,93.55-32.59,187.18C252,846.92,247.68,873,243,901.26c7.87-4,13.59-6.79,19.23-9.76,73.2-38.51,146.47-76.86,219.47-115.72,12.64-6.73,23.6-7.13,36.39-.24,51.2,27.57,102.76,54.46,154.22,81.54,27.35,14.39,54.76,28.66,84.25,44.09-1-7.39-1.45-12.44-2.31-17.43C739.68,798.8,724.84,713.92,711,628.87c-1.17-7.21,2-17.82,7.09-22.93,49.33-49.47,99.63-98,149.38-147,15.76-15.53,30.74-31.87,46.27-48.05-2-.37-3.63-.77-5.32-1-82.74-12-165.39-24.62-248.29-35.36-22.52-2.92-35.51-11.44-45.49-32.6C578.07,264.4,539.21,188,500.2,109.13Z" style="fill:#ffe70b"/><path d="M500.2,109.13c39,78.86,77.87,155.27,114.45,232.76,10,21.16,23,29.68,45.49,32.6,82.9,10.74,165.55,23.4,248.29,35.36,1.69.24,3.37.64,5.32,1-15.53,16.18-30.51,32.52-46.27,48.05-49.75,49-100.05,97.56-149.38,147-5.09,5.11-8.26,15.72-7.09,22.93,13.83,85,28.67,169.93,43.19,254.87.86,5,1.35,10,2.31,17.43-29.49-15.43-56.9-29.7-84.25-44.09-51.46-27.08-103-54-154.22-81.54-12.79-6.89-23.75-6.49-36.39.24-73,38.86-146.27,77.21-219.47,115.72-5.64,3-11.36,5.77-19.23,9.76,4.73-28.23,9-54.34,13.5-80.41Q272.62,727.24,289,633.67c2.29-13-1-22.93-10.75-32.41C217.26,542.15,156.72,482.52,96,423.1c-3.38-3.31-7.06-6.33-13.14-11.74,19.72-3.06,36.31-5.78,53-8.19,72.51-10.48,145-21.11,217.58-31.05,12.52-1.72,20.21-7.07,25.69-18.27q57.06-116.66,114.73-233C495.49,117.44,497.44,114.17,500.2,109.13Z" style="fill:#fff"/><path d="M503.56,94c5.5,5.76,12.82,10.6,16.21,17.41q57,114.39,112.93,229.36c3.08,6.32,6.84,9.5,14.2,10.54,84.41,12,168.76,24.37,253.14,36.61,9.66,1.4,18.85,3.72,22,14.48s-2.39,18.43-9.89,25.67q-92.07,88.89-183.92,178c-4.92,4.75-5.9,9.15-4.72,15.87Q745.78,748.42,767.28,875c1.56,9.12,1.77,18.32-7.16,24.4-8.61,5.86-16.91,3.48-25.41-1-75.33-39.84-150.8-79.41-226-119.5-7.09-3.79-12.08-3-18.56.44Q378.29,838.87,266.2,897.93c-4.27,2.26-8.78,4.7-13.44,5.48-14.09,2.37-24.35-9.39-21.79-25.06,4.48-27.42,9.39-54.77,14.11-82.15,10.08-58.46,20.31-116.9,29.89-175.45.74-4.5-1.74-11.19-5.07-14.47Q183.1,520.86,95.65,436.09c-4-3.93-8.15-7.8-11.94-12C70.48,409.54,75.77,392.3,95.24,389c33.33-5.6,66.83-10.21,100.28-15.1,52.77-7.7,105.59-15.07,158.29-23.28,4.71-.74,10.39-5.73,12.64-10.24,37.85-75.92,75.1-152.15,112.94-228.08,3.44-6.91,10-12.26,15.14-18.33ZM500,158.61c-2.41,4.39-4.11,7.24-5.58,10.21q-50.09,101.51-100,203.09c-4.78,9.76-11.48,14.42-22.39,15.92-63.27,8.67-126.45,17.93-189.65,27.07-14.5,2.09-29,4.47-46.15,7.13,5.3,4.72,8.51,7.35,11.46,10.23,52.93,51.8,105.7,103.77,158.89,155.3,8.53,8.26,11.36,16.93,9.37,28.24Q301.57,697.34,287.55,779c-3.93,22.72-7.65,45.48-11.77,70.08,6.86-3.47,11.85-5.92,16.76-8.5,63.8-33.57,127.66-67,191.29-100.87,11-5.86,20.57-6.21,31.72-.21,44.62,24,89.56,47.47,134.42,71.07,23.83,12.54,47.72,25,73.43,38.43-.84-6.43-1.27-10.84-2-15.19-12.67-74-25.6-148-37.65-222.14-1-6.28,1.74-15.54,6.17-20,43-43.11,86.84-85.4,130.21-128.15,13.74-13.54,26.79-27.78,40.33-41.88-1.71-.33-3.17-.67-4.64-.88C783.69,410.3,711.65,399.26,639.4,389.9c-19.63-2.55-30.95-10-39.65-28.42C567.87,294,534,227.35,500,158.61Z" style="fill:#ffe70b"/></svg>