<svg id="Layer_1" data-name="Layer 1" xmlns="http://www.w3.org/2000/svg" viewBox="0 0 1000 1000"><title>orange unlocked icon</title><path d="M620.7,29H394.41c-85.25,0-155,69.75-155,155V432.52c0,85.25,69.75,155,155,155H620.7c85.25,0,155-69.75,155-155V184C775.7,98.75,706,29,620.7,29ZM693,455.53c0,54.45-44.55,99-99,99H421.12c-54.45,0-99-44.55-99-99V204.65c0-54.45,44.55-99,99-99H594c54.45,0,99,44.55,99,99Z" style="fill:#b77c4b"/><rect x="681" y="223" width="99" height="141" style="fill:#fff"/><rect x="168.3" y="357.57" width="678.51" height="614.43" rx="100" style="fill:#ffb96f"/><path d="M576.66,598.19A69.11,69.11,0,1,0,474,658.63L452.9,800.49H563.47L542.22,658A69.07,69.07,0,0,0,576.66,598.19Z" style="fill:#b77c4b"/><rect x="693.15" y="188" width="82.7" height="82.9" rx="29" style="fill:#b77c4b"/></svg>